<svg xmlns="http://www.w3.org/2000/svg" xmlns:xlink="http://www.w3.org/1999/xlink" width="500" zoomAndPan="magnify" viewBox="0 0 375 374.999991" height="500" preserveAspectRatio="xMidYMid meet" version="1.0"><defs><g/><clipPath id="736293e0b3"><path d="M 92.246094 121.230469 L 282.738281 121.230469 L 282.738281 214.980469 L 92.246094 214.980469 Z M 92.246094 121.230469 " clip-rule="nonzero"/></clipPath></defs><g clip-path="url(#736293e0b3)"><path fill="#000000" d="M 191.179688 160.070312 C 196.070312 163.722656 210.652344 169.753906 226.644531 176.375 C 252.859375 187.226562 282.757812 199.601562 282.757812 207.777344 C 282.757812 212.414062 274.910156 215.296875 254.8125 215.296875 L 252.597656 215.296875 L 252.597656 211.425781 L 254.8125 211.425781 C 272.125 211.425781 278.882812 210.027344 278.882812 207.777344 C 278.882812 202.175781 250.265625 190.332031 225.179688 179.949219 C 209.546875 173.476562 195.246094 167.558594 189.429688 163.554688 C 183.953125 167.148438 169.890625 172.632812 154.167969 178.765625 C 127.589844 189.132812 96.121094 201.410156 96.121094 207.34375 C 96.121094 209.777344 103.480469 211.332031 122.40625 211.417969 L 122.40625 215.292969 C 100.6875 215.144531 92.246094 212.105469 92.246094 207.34375 C 92.246094 198.769531 125.050781 185.972656 152.761719 175.164062 C 168.449219 169.046875 182.453125 163.585938 187.308594 160.34375 L 187.308594 148.296875 C 184.421875 147.832031 181.839844 146.460938 179.863281 144.480469 C 177.398438 142.015625 175.875 138.613281 175.875 134.851562 C 175.875 131.089844 177.398438 127.683594 179.863281 125.21875 C 182.328125 122.753906 185.734375 121.230469 189.496094 121.230469 C 193.257812 121.230469 196.664062 122.753906 199.128906 125.21875 C 201.59375 127.683594 203.117188 131.089844 203.117188 134.851562 C 203.117188 135.921875 202.25 136.789062 201.179688 136.789062 C 200.109375 136.789062 199.242188 135.921875 199.242188 134.851562 C 199.242188 132.160156 198.152344 129.722656 196.386719 127.957031 C 194.625 126.195312 192.1875 125.101562 189.496094 125.101562 C 186.804688 125.101562 184.367188 126.195312 182.605469 127.957031 C 180.839844 129.722656 179.746094 132.160156 179.746094 134.851562 C 179.746094 137.542969 180.839844 139.980469 182.605469 141.742188 C 184.367188 143.507812 186.804688 144.597656 189.496094 144.597656 C 190.566406 144.597656 191.433594 145.464844 191.433594 146.535156 C 191.433594 146.882812 191.339844 147.210938 191.179688 147.492188 L 191.179688 160.070312 " fill-opacity="1" fill-rule="nonzero"/></g><g fill="#000000" fill-opacity="1"><g transform="translate(117.438028, 214.749977)"><g><path d="M 19.578125 0.78125 C 19.453125 1.007812 19.265625 1.125 19.015625 1.125 C 18.816406 1.125 18.660156 1.054688 18.546875 0.921875 C 18.429688 0.796875 18.375 0.644531 18.375 0.46875 C 18.375 0.4375 18.378906 0.195312 18.390625 -0.25 C 18.398438 -0.695312 18.40625 -1.300781 18.40625 -2.0625 C 18.40625 -3.03125 18.40625 -4.0625 18.40625 -5.15625 C 18.414062 -6.25 18.40625 -7.359375 18.375 -8.484375 C 18.34375 -9.617188 18.269531 -10.742188 18.15625 -11.859375 C 18.039062 -12.972656 17.863281 -14.039062 17.625 -15.0625 C 17.382812 -16.082031 17.066406 -17.03125 16.671875 -17.90625 C 16.285156 -18.78125 15.789062 -19.539062 15.1875 -20.1875 C 14.582031 -20.832031 13.863281 -21.335938 13.03125 -21.703125 C 12.207031 -22.066406 11.226562 -22.25 10.09375 -22.25 C 8.988281 -22.25 7.976562 -22.054688 7.0625 -21.671875 C 6.15625 -21.296875 5.375 -20.785156 4.71875 -20.140625 C 4.070312 -19.492188 3.566406 -18.738281 3.203125 -17.875 C 2.847656 -17.019531 2.671875 -16.113281 2.671875 -15.15625 C 2.671875 -14.320312 2.8125 -13.554688 3.09375 -12.859375 C 3.382812 -12.160156 3.78125 -11.550781 4.28125 -11.03125 C 4.789062 -10.519531 5.378906 -10.117188 6.046875 -9.828125 C 6.710938 -9.546875 7.421875 -9.40625 8.171875 -9.40625 C 8.722656 -9.40625 9.234375 -9.476562 9.703125 -9.625 C 10.171875 -9.78125 10.570312 -9.945312 10.90625 -10.125 C 11.238281 -10.3125 11.492188 -10.484375 11.671875 -10.640625 C 11.859375 -10.796875 11.957031 -10.875 11.96875 -10.875 C 12.09375 -11 12.242188 -11.0625 12.421875 -11.0625 C 12.597656 -11.0625 12.75 -11 12.875 -10.875 C 13 -10.757812 13.0625 -10.613281 13.0625 -10.4375 C 13.0625 -10.269531 13 -10.125 12.875 -10 C 12.84375 -9.976562 12.710938 -9.863281 12.484375 -9.65625 C 12.253906 -9.457031 11.929688 -9.242188 11.515625 -9.015625 C 11.109375 -8.796875 10.625 -8.59375 10.0625 -8.40625 C 9.5 -8.226562 8.875 -8.140625 8.1875 -8.140625 C 7.238281 -8.140625 6.351562 -8.3125 5.53125 -8.65625 C 4.707031 -9.007812 3.984375 -9.5 3.359375 -10.125 C 2.742188 -10.757812 2.257812 -11.503906 1.90625 -12.359375 C 1.550781 -13.222656 1.375 -14.15625 1.375 -15.15625 C 1.375 -16.300781 1.59375 -17.378906 2.03125 -18.390625 C 2.46875 -19.398438 3.070312 -20.285156 3.84375 -21.046875 C 4.613281 -21.804688 5.523438 -22.40625 6.578125 -22.84375 C 7.640625 -23.28125 8.789062 -23.5 10.03125 -23.5 C 11.632812 -23.5 12.988281 -23.207031 14.09375 -22.625 C 15.195312 -22.050781 16.109375 -21.285156 16.828125 -20.328125 C 17.554688 -19.367188 18.117188 -18.257812 18.515625 -17 C 18.910156 -15.738281 19.195312 -14.421875 19.375 -13.046875 C 19.5625 -11.679688 19.671875 -10.304688 19.703125 -8.921875 C 19.734375 -7.546875 19.75 -6.25 19.75 -5.03125 C 19.75 -4.800781 19.75 -4.550781 19.75 -4.28125 C 19.75 -4.019531 19.742188 -3.757812 19.734375 -3.5 C 19.734375 -3.238281 19.726562 -2.988281 19.71875 -2.75 C 19.71875 -2.519531 19.71875 -2.332031 19.71875 -2.1875 L 31.171875 -23.375 C 31.273438 -23.59375 31.457031 -23.703125 31.71875 -23.703125 C 31.914062 -23.703125 32.070312 -23.632812 32.1875 -23.5 C 32.3125 -23.375 32.375 -23.222656 32.375 -23.046875 C 32.375 -22.992188 32.335938 -22.785156 32.265625 -22.421875 C 32.191406 -22.066406 32.109375 -21.59375 32.015625 -21 C 31.921875 -20.40625 31.816406 -19.71875 31.703125 -18.9375 C 31.585938 -18.164062 31.476562 -17.328125 31.375 -16.421875 C 31.28125 -15.523438 31.195312 -14.585938 31.125 -13.609375 C 31.0625 -12.640625 31.03125 -11.671875 31.03125 -10.703125 C 31.03125 -9.066406 31.113281 -7.617188 31.28125 -6.359375 C 31.457031 -5.109375 31.738281 -4.046875 32.125 -3.171875 C 32.507812 -2.304688 33.019531 -1.648438 33.65625 -1.203125 C 34.289062 -0.765625 35.066406 -0.546875 35.984375 -0.546875 C 36.816406 -0.546875 37.609375 -0.722656 38.359375 -1.078125 C 39.117188 -1.441406 39.820312 -1.9375 40.46875 -2.5625 C 41.113281 -3.1875 41.71875 -3.921875 42.28125 -4.765625 C 42.84375 -5.609375 43.347656 -6.515625 43.796875 -7.484375 C 44.242188 -8.460938 44.640625 -9.472656 44.984375 -10.515625 C 45.335938 -11.566406 45.628906 -12.609375 45.859375 -13.640625 C 46.097656 -14.679688 46.273438 -15.691406 46.390625 -16.671875 C 46.503906 -17.660156 46.5625 -18.5625 46.5625 -19.375 C 46.5625 -20.863281 46.394531 -22.226562 46.0625 -23.46875 C 45.726562 -24.71875 45.191406 -25.738281 44.453125 -26.53125 C 44.335938 -26.632812 44.28125 -26.773438 44.28125 -26.953125 C 44.28125 -27.128906 44.34375 -27.28125 44.46875 -27.40625 C 44.601562 -27.53125 44.753906 -27.59375 44.921875 -27.59375 C 45.117188 -27.59375 45.273438 -27.53125 45.390625 -27.40625 C 45.828125 -26.945312 46.203125 -26.421875 46.515625 -25.828125 C 46.828125 -25.242188 47.082031 -24.609375 47.28125 -23.921875 C 47.476562 -23.234375 47.625 -22.503906 47.71875 -21.734375 C 47.820312 -20.972656 47.875 -20.179688 47.875 -19.359375 C 47.875 -18.109375 47.753906 -16.742188 47.515625 -15.265625 C 47.273438 -13.796875 46.921875 -12.316406 46.453125 -10.828125 C 45.984375 -9.335938 45.410156 -7.894531 44.734375 -6.5 C 44.054688 -5.113281 43.273438 -3.890625 42.390625 -2.828125 C 41.503906 -1.765625 40.523438 -0.910156 39.453125 -0.265625 C 38.390625 0.378906 37.234375 0.703125 35.984375 0.703125 C 34.816406 0.703125 33.832031 0.4375 33.03125 -0.09375 C 32.238281 -0.625 31.597656 -1.382812 31.109375 -2.375 C 30.628906 -3.375 30.28125 -4.585938 30.0625 -6.015625 C 29.851562 -7.441406 29.75 -9.046875 29.75 -10.828125 C 29.75 -11.578125 29.773438 -12.34375 29.828125 -13.125 C 29.878906 -13.90625 29.941406 -14.671875 30.015625 -15.421875 C 30.085938 -16.179688 30.164062 -16.90625 30.25 -17.59375 C 30.34375 -18.289062 30.425781 -18.921875 30.5 -19.484375 Z M 19.578125 0.78125 "/></g></g></g><g fill="#000000" fill-opacity="1"><g transform="translate(166.150294, 214.749977)"><g><path d="M 13.859375 -4.765625 C 13.816406 -4.671875 13.722656 -4.476562 13.578125 -4.1875 C 13.429688 -3.90625 13.25 -3.570312 13.03125 -3.1875 C 12.8125 -2.8125 12.550781 -2.421875 12.25 -2.015625 C 11.957031 -1.609375 11.628906 -1.234375 11.265625 -0.890625 C 10.898438 -0.546875 10.503906 -0.257812 10.078125 -0.03125 C 9.660156 0.1875 9.21875 0.296875 8.75 0.296875 C 8.09375 0.296875 7.535156 0.0859375 7.078125 -0.328125 C 6.628906 -0.753906 6.300781 -1.289062 6.09375 -1.9375 C 5.707031 -1.28125 5.242188 -0.757812 4.703125 -0.375 C 4.171875 0 3.640625 0.1875 3.109375 0.1875 C 2.691406 0.1875 2.3125 0.109375 1.96875 -0.046875 C 1.625 -0.203125 1.332031 -0.414062 1.09375 -0.6875 C 0.851562 -0.96875 0.664062 -1.296875 0.53125 -1.671875 C 0.40625 -2.046875 0.34375 -2.457031 0.34375 -2.90625 C 0.34375 -3.789062 0.492188 -4.570312 0.796875 -5.25 C 1.097656 -5.925781 1.484375 -6.492188 1.953125 -6.953125 C 2.421875 -7.410156 2.9375 -7.753906 3.5 -7.984375 C 4.0625 -8.210938 4.601562 -8.328125 5.125 -8.328125 C 5.476562 -8.328125 5.800781 -8.273438 6.09375 -8.171875 C 6.394531 -8.078125 6.648438 -7.972656 6.859375 -7.859375 C 7.066406 -7.742188 7.226562 -7.640625 7.34375 -7.546875 C 7.457031 -7.453125 7.519531 -7.398438 7.53125 -7.390625 C 7.65625 -7.234375 7.71875 -7.078125 7.71875 -6.921875 C 7.71875 -6.753906 7.65625 -6.601562 7.53125 -6.46875 C 7.40625 -6.332031 7.257812 -6.265625 7.09375 -6.265625 C 6.90625 -6.265625 6.75 -6.328125 6.625 -6.453125 C 6.601562 -6.484375 6.550781 -6.53125 6.46875 -6.59375 C 6.394531 -6.65625 6.289062 -6.71875 6.15625 -6.78125 C 6.019531 -6.851562 5.859375 -6.914062 5.671875 -6.96875 C 5.484375 -7.019531 5.269531 -7.046875 5.03125 -7.046875 C 4.675781 -7.046875 4.296875 -6.960938 3.890625 -6.796875 C 3.492188 -6.640625 3.128906 -6.390625 2.796875 -6.046875 C 2.472656 -5.710938 2.195312 -5.289062 1.96875 -4.78125 C 1.75 -4.28125 1.640625 -3.679688 1.640625 -2.984375 C 1.640625 -2.773438 1.660156 -2.554688 1.703125 -2.328125 C 1.753906 -2.109375 1.835938 -1.90625 1.953125 -1.71875 C 2.066406 -1.539062 2.21875 -1.394531 2.40625 -1.28125 C 2.601562 -1.164062 2.84375 -1.109375 3.125 -1.109375 C 3.332031 -1.109375 3.566406 -1.175781 3.828125 -1.3125 C 4.097656 -1.445312 4.351562 -1.65625 4.59375 -1.9375 C 4.84375 -2.226562 5.066406 -2.585938 5.265625 -3.015625 C 5.472656 -3.453125 5.613281 -3.96875 5.6875 -4.5625 C 5.707031 -4.71875 5.78125 -4.847656 5.90625 -4.953125 C 6.03125 -5.066406 6.179688 -5.125 6.359375 -5.125 C 6.515625 -5.125 6.648438 -5.0625 6.765625 -4.9375 C 6.890625 -4.8125 6.957031 -4.671875 6.96875 -4.515625 C 6.976562 -4.296875 7 -3.988281 7.03125 -3.59375 C 7.070312 -3.207031 7.148438 -2.816406 7.265625 -2.421875 C 7.390625 -2.035156 7.570312 -1.695312 7.8125 -1.40625 C 8.050781 -1.125 8.378906 -0.984375 8.796875 -0.984375 C 9.078125 -0.984375 9.347656 -1.054688 9.609375 -1.203125 C 9.878906 -1.359375 10.140625 -1.554688 10.390625 -1.796875 C 10.648438 -2.046875 10.894531 -2.328125 11.125 -2.640625 C 11.363281 -2.953125 11.578125 -3.265625 11.765625 -3.578125 C 11.960938 -3.898438 12.132812 -4.207031 12.28125 -4.5 C 12.4375 -4.800781 12.5625 -5.0625 12.65625 -5.28125 C 12.71875 -5.40625 12.800781 -5.5 12.90625 -5.5625 C 13.019531 -5.632812 13.140625 -5.671875 13.265625 -5.671875 C 13.453125 -5.671875 13.601562 -5.597656 13.71875 -5.453125 C 13.84375 -5.316406 13.90625 -5.164062 13.90625 -5 C 13.90625 -4.925781 13.890625 -4.847656 13.859375 -4.765625 Z M 13.859375 -4.765625 "/></g></g></g><g fill="#000000" fill-opacity="1"><g transform="translate(178.178858, 214.749977)"><g><path d="M 2.4375 -7.03125 C 2.394531 -6.71875 2.335938 -6.425781 2.265625 -6.15625 C 2.203125 -5.894531 2.140625 -5.660156 2.078125 -5.453125 C 2.015625 -5.253906 1.957031 -5.09375 1.90625 -4.96875 C 1.863281 -4.84375 1.835938 -4.773438 1.828125 -4.765625 C 1.710938 -4.503906 1.515625 -4.375 1.234375 -4.375 C 1.066406 -4.375 0.914062 -4.429688 0.78125 -4.546875 C 0.644531 -4.671875 0.578125 -4.820312 0.578125 -5 C 0.578125 -5.070312 0.585938 -5.125 0.609375 -5.15625 C 0.640625 -5.195312 0.675781 -5.265625 0.71875 -5.359375 C 0.757812 -5.460938 0.8125 -5.632812 0.875 -5.875 C 0.945312 -6.113281 1.035156 -6.484375 1.140625 -6.984375 C 0.953125 -6.984375 0.753906 -6.988281 0.546875 -7 C 0.335938 -7.019531 0.144531 -7.0625 -0.03125 -7.125 C -0.207031 -7.195312 -0.347656 -7.304688 -0.453125 -7.453125 C -0.566406 -7.597656 -0.625 -7.800781 -0.625 -8.0625 C -0.625 -8.257812 -0.570312 -8.519531 -0.46875 -8.84375 C -0.363281 -9.175781 -0.21875 -9.503906 -0.03125 -9.828125 C 0.144531 -10.148438 0.347656 -10.425781 0.578125 -10.65625 C 0.804688 -10.882812 1.035156 -11 1.265625 -11 C 1.523438 -11 1.738281 -10.898438 1.90625 -10.703125 C 2.070312 -10.515625 2.195312 -10.28125 2.28125 -10 C 2.375 -9.726562 2.441406 -9.4375 2.484375 -9.125 C 2.523438 -8.820312 2.546875 -8.554688 2.546875 -8.328125 C 2.742188 -8.328125 2.9375 -8.328125 3.125 -8.328125 C 3.3125 -8.335938 3.488281 -8.34375 3.65625 -8.34375 C 4.300781 -8.34375 4.796875 -8.195312 5.140625 -7.90625 C 5.484375 -7.625 5.65625 -7.160156 5.65625 -6.515625 C 5.65625 -6.253906 5.632812 -5.976562 5.59375 -5.6875 C 5.5625 -5.40625 5.523438 -5.113281 5.484375 -4.8125 C 5.441406 -4.507812 5.398438 -4.207031 5.359375 -3.90625 C 5.328125 -3.613281 5.3125 -3.328125 5.3125 -3.046875 C 5.3125 -2.628906 5.367188 -2.285156 5.484375 -2.015625 C 5.597656 -1.753906 5.738281 -1.539062 5.90625 -1.375 C 6.082031 -1.21875 6.265625 -1.109375 6.453125 -1.046875 C 6.648438 -0.984375 6.828125 -0.953125 6.984375 -0.953125 C 7.472656 -0.953125 7.9375 -1.113281 8.375 -1.4375 C 8.8125 -1.757812 9.210938 -2.144531 9.578125 -2.59375 C 9.941406 -3.039062 10.265625 -3.515625 10.546875 -4.015625 C 10.835938 -4.515625 11.082031 -4.953125 11.28125 -5.328125 C 11.332031 -5.429688 11.410156 -5.507812 11.515625 -5.5625 C 11.617188 -5.625 11.726562 -5.65625 11.84375 -5.65625 C 12.050781 -5.65625 12.210938 -5.585938 12.328125 -5.453125 C 12.441406 -5.328125 12.5 -5.1875 12.5 -5.03125 C 12.5 -4.914062 12.472656 -4.8125 12.421875 -4.71875 C 12.160156 -4.25 11.851562 -3.71875 11.5 -3.125 C 11.15625 -2.539062 10.757812 -1.992188 10.3125 -1.484375 C 9.875 -0.972656 9.378906 -0.539062 8.828125 -0.1875 C 8.273438 0.164062 7.664062 0.34375 7 0.34375 C 6.59375 0.34375 6.207031 0.265625 5.84375 0.109375 C 5.476562 -0.046875 5.160156 -0.265625 4.890625 -0.546875 C 4.628906 -0.835938 4.414062 -1.195312 4.25 -1.625 C 4.09375 -2.050781 4.015625 -2.535156 4.015625 -3.078125 C 4.015625 -3.648438 4.070312 -4.21875 4.1875 -4.78125 C 4.300781 -5.34375 4.359375 -5.878906 4.359375 -6.390625 C 4.359375 -6.609375 4.304688 -6.769531 4.203125 -6.875 C 4.109375 -6.988281 3.898438 -7.046875 3.578125 -7.046875 C 3.410156 -7.046875 3.234375 -7.046875 3.046875 -7.046875 C 2.859375 -7.046875 2.65625 -7.039062 2.4375 -7.03125 Z M 1.296875 -8.28125 C 1.296875 -8.363281 1.289062 -8.46875 1.28125 -8.59375 C 1.28125 -8.726562 1.269531 -8.859375 1.25 -8.984375 C 1.238281 -9.109375 1.21875 -9.21875 1.1875 -9.3125 C 1.15625 -9.40625 1.125 -9.453125 1.09375 -9.453125 C 1.0625 -9.453125 1.019531 -9.40625 0.96875 -9.3125 C 0.914062 -9.226562 0.859375 -9.125 0.796875 -9 C 0.742188 -8.882812 0.691406 -8.757812 0.640625 -8.625 C 0.597656 -8.488281 0.566406 -8.375 0.546875 -8.28125 Z M 1.296875 -8.28125 "/></g></g></g><g fill="#000000" fill-opacity="1"><g transform="translate(188.789281, 214.749977)"><g><path d="M 7.28125 -4.96875 C 7.84375 -2.34375 8.648438 -1.03125 9.703125 -1.03125 C 10.117188 -1.03125 10.515625 -1.179688 10.890625 -1.484375 C 11.265625 -1.785156 11.613281 -2.15625 11.9375 -2.59375 C 12.257812 -3.03125 12.546875 -3.492188 12.796875 -3.984375 C 13.046875 -4.472656 13.253906 -4.898438 13.421875 -5.265625 C 13.535156 -5.535156 13.734375 -5.671875 14.015625 -5.671875 C 14.191406 -5.671875 14.34375 -5.601562 14.46875 -5.46875 C 14.59375 -5.332031 14.65625 -5.1875 14.65625 -5.03125 C 14.65625 -4.9375 14.640625 -4.851562 14.609375 -4.78125 C 14.535156 -4.59375 14.421875 -4.332031 14.265625 -4 C 14.109375 -3.675781 13.914062 -3.328125 13.6875 -2.953125 C 13.46875 -2.585938 13.222656 -2.210938 12.953125 -1.828125 C 12.679688 -1.441406 12.378906 -1.09375 12.046875 -0.78125 C 11.710938 -0.476562 11.359375 -0.222656 10.984375 -0.015625 C 10.617188 0.179688 10.234375 0.28125 9.828125 0.28125 C 9.066406 0.28125 8.410156 0.015625 7.859375 -0.515625 C 7.316406 -1.046875 6.84375 -1.921875 6.4375 -3.140625 C 5.894531 -1.984375 5.34375 -1.140625 4.78125 -0.609375 C 4.226562 -0.0859375 3.625 0.171875 2.96875 0.171875 C 2.632812 0.171875 2.304688 0.113281 1.984375 0 C 1.660156 -0.101562 1.378906 -0.28125 1.140625 -0.53125 C 0.898438 -0.78125 0.707031 -1.097656 0.5625 -1.484375 C 0.414062 -1.878906 0.34375 -2.363281 0.34375 -2.9375 C 0.34375 -3.726562 0.476562 -4.453125 0.75 -5.109375 C 1.019531 -5.765625 1.375 -6.328125 1.8125 -6.796875 C 2.25 -7.273438 2.726562 -7.644531 3.25 -7.90625 C 3.78125 -8.175781 4.3125 -8.3125 4.84375 -8.3125 C 5.007812 -8.3125 5.15625 -8.25 5.28125 -8.125 C 5.40625 -8.007812 5.46875 -7.859375 5.46875 -7.671875 C 5.46875 -7.515625 5.414062 -7.375 5.3125 -7.25 C 5.207031 -7.125 5.070312 -7.050781 4.90625 -7.03125 C 4.5625 -6.976562 4.195312 -6.863281 3.8125 -6.6875 C 3.425781 -6.519531 3.066406 -6.273438 2.734375 -5.953125 C 2.410156 -5.628906 2.144531 -5.21875 1.9375 -4.71875 C 1.726562 -4.21875 1.625 -3.617188 1.625 -2.921875 C 1.625 -2.347656 1.738281 -1.898438 1.96875 -1.578125 C 2.207031 -1.265625 2.546875 -1.109375 2.984375 -1.109375 C 3.171875 -1.109375 3.363281 -1.15625 3.5625 -1.25 C 3.769531 -1.351562 3.988281 -1.546875 4.21875 -1.828125 C 4.457031 -2.109375 4.71875 -2.507812 5 -3.03125 C 5.28125 -3.5625 5.59375 -4.253906 5.9375 -5.109375 C 5.738281 -6.109375 5.554688 -7.265625 5.390625 -8.578125 C 5.234375 -9.890625 5.15625 -11.351562 5.15625 -12.96875 C 5.15625 -13.675781 5.175781 -14.414062 5.21875 -15.1875 C 5.269531 -15.957031 5.347656 -16.707031 5.453125 -17.4375 C 5.554688 -18.175781 5.691406 -18.875 5.859375 -19.53125 C 6.035156 -20.195312 6.242188 -20.78125 6.484375 -21.28125 C 6.734375 -21.78125 7.019531 -22.175781 7.34375 -22.46875 C 7.675781 -22.757812 8.054688 -22.90625 8.484375 -22.90625 C 8.859375 -22.90625 9.175781 -22.800781 9.4375 -22.59375 C 9.695312 -22.382812 9.910156 -22.097656 10.078125 -21.734375 C 10.242188 -21.367188 10.363281 -20.929688 10.4375 -20.421875 C 10.519531 -19.910156 10.5625 -19.347656 10.5625 -18.734375 C 10.5625 -17.410156 10.445312 -16.085938 10.21875 -14.765625 C 9.988281 -13.441406 9.707031 -12.175781 9.375 -10.96875 C 9.039062 -9.757812 8.679688 -8.640625 8.296875 -7.609375 C 7.921875 -6.585938 7.582031 -5.707031 7.28125 -4.96875 Z M 9.28125 -18.75 C 9.28125 -19.03125 9.269531 -19.335938 9.25 -19.671875 C 9.238281 -20.003906 9.203125 -20.3125 9.140625 -20.59375 C 9.078125 -20.882812 8.992188 -21.128906 8.890625 -21.328125 C 8.785156 -21.523438 8.648438 -21.625 8.484375 -21.625 C 8.191406 -21.625 7.921875 -21.367188 7.671875 -20.859375 C 7.429688 -20.359375 7.21875 -19.703125 7.03125 -18.890625 C 6.851562 -18.078125 6.707031 -17.15625 6.59375 -16.125 C 6.488281 -15.09375 6.4375 -14.050781 6.4375 -13 C 6.4375 -12 6.476562 -11 6.5625 -10 C 6.644531 -9 6.738281 -8.101562 6.84375 -7.3125 C 7.164062 -8.1875 7.472656 -9.085938 7.765625 -10.015625 C 8.066406 -10.953125 8.328125 -11.90625 8.546875 -12.875 C 8.773438 -13.84375 8.953125 -14.816406 9.078125 -15.796875 C 9.210938 -16.785156 9.28125 -17.769531 9.28125 -18.75 Z M 9.28125 -18.75 "/></g></g></g><g fill="#000000" fill-opacity="1"><g transform="translate(201.56963, 214.749977)"><g><path d="M 2.4375 -7.03125 C 2.394531 -6.71875 2.335938 -6.425781 2.265625 -6.15625 C 2.203125 -5.894531 2.140625 -5.660156 2.078125 -5.453125 C 2.015625 -5.253906 1.957031 -5.09375 1.90625 -4.96875 C 1.863281 -4.84375 1.835938 -4.773438 1.828125 -4.765625 C 1.710938 -4.503906 1.515625 -4.375 1.234375 -4.375 C 1.066406 -4.375 0.914062 -4.429688 0.78125 -4.546875 C 0.644531 -4.671875 0.578125 -4.820312 0.578125 -5 C 0.578125 -5.070312 0.585938 -5.125 0.609375 -5.15625 C 0.640625 -5.195312 0.675781 -5.265625 0.71875 -5.359375 C 0.757812 -5.460938 0.8125 -5.632812 0.875 -5.875 C 0.945312 -6.113281 1.035156 -6.484375 1.140625 -6.984375 C 0.953125 -6.984375 0.753906 -6.988281 0.546875 -7 C 0.335938 -7.019531 0.144531 -7.0625 -0.03125 -7.125 C -0.207031 -7.195312 -0.347656 -7.304688 -0.453125 -7.453125 C -0.566406 -7.597656 -0.625 -7.800781 -0.625 -8.0625 C -0.625 -8.257812 -0.570312 -8.519531 -0.46875 -8.84375 C -0.363281 -9.175781 -0.21875 -9.503906 -0.03125 -9.828125 C 0.144531 -10.148438 0.347656 -10.425781 0.578125 -10.65625 C 0.804688 -10.882812 1.035156 -11 1.265625 -11 C 1.523438 -11 1.738281 -10.898438 1.90625 -10.703125 C 2.070312 -10.515625 2.195312 -10.28125 2.28125 -10 C 2.375 -9.726562 2.441406 -9.4375 2.484375 -9.125 C 2.523438 -8.820312 2.546875 -8.554688 2.546875 -8.328125 C 2.742188 -8.328125 2.9375 -8.328125 3.125 -8.328125 C 3.3125 -8.335938 3.488281 -8.34375 3.65625 -8.34375 C 4.300781 -8.34375 4.796875 -8.195312 5.140625 -7.90625 C 5.484375 -7.625 5.65625 -7.160156 5.65625 -6.515625 C 5.65625 -6.253906 5.632812 -5.976562 5.59375 -5.6875 C 5.5625 -5.40625 5.523438 -5.113281 5.484375 -4.8125 C 5.441406 -4.507812 5.398438 -4.207031 5.359375 -3.90625 C 5.328125 -3.613281 5.3125 -3.328125 5.3125 -3.046875 C 5.3125 -2.628906 5.367188 -2.285156 5.484375 -2.015625 C 5.597656 -1.753906 5.738281 -1.539062 5.90625 -1.375 C 6.082031 -1.21875 6.265625 -1.109375 6.453125 -1.046875 C 6.648438 -0.984375 6.828125 -0.953125 6.984375 -0.953125 C 7.472656 -0.953125 7.9375 -1.113281 8.375 -1.4375 C 8.8125 -1.757812 9.210938 -2.144531 9.578125 -2.59375 C 9.941406 -3.039062 10.265625 -3.515625 10.546875 -4.015625 C 10.835938 -4.515625 11.082031 -4.953125 11.28125 -5.328125 C 11.332031 -5.429688 11.410156 -5.507812 11.515625 -5.5625 C 11.617188 -5.625 11.726562 -5.65625 11.84375 -5.65625 C 12.050781 -5.65625 12.210938 -5.585938 12.328125 -5.453125 C 12.441406 -5.328125 12.5 -5.1875 12.5 -5.03125 C 12.5 -4.914062 12.472656 -4.8125 12.421875 -4.71875 C 12.160156 -4.25 11.851562 -3.71875 11.5 -3.125 C 11.15625 -2.539062 10.757812 -1.992188 10.3125 -1.484375 C 9.875 -0.972656 9.378906 -0.539062 8.828125 -0.1875 C 8.273438 0.164062 7.664062 0.34375 7 0.34375 C 6.59375 0.34375 6.207031 0.265625 5.84375 0.109375 C 5.476562 -0.046875 5.160156 -0.265625 4.890625 -0.546875 C 4.628906 -0.835938 4.414062 -1.195312 4.25 -1.625 C 4.09375 -2.050781 4.015625 -2.535156 4.015625 -3.078125 C 4.015625 -3.648438 4.070312 -4.21875 4.1875 -4.78125 C 4.300781 -5.34375 4.359375 -5.878906 4.359375 -6.390625 C 4.359375 -6.609375 4.304688 -6.769531 4.203125 -6.875 C 4.109375 -6.988281 3.898438 -7.046875 3.578125 -7.046875 C 3.410156 -7.046875 3.234375 -7.046875 3.046875 -7.046875 C 2.859375 -7.046875 2.65625 -7.039062 2.4375 -7.03125 Z M 1.296875 -8.28125 C 1.296875 -8.363281 1.289062 -8.46875 1.28125 -8.59375 C 1.28125 -8.726562 1.269531 -8.859375 1.25 -8.984375 C 1.238281 -9.109375 1.21875 -9.21875 1.1875 -9.3125 C 1.15625 -9.40625 1.125 -9.453125 1.09375 -9.453125 C 1.0625 -9.453125 1.019531 -9.40625 0.96875 -9.3125 C 0.914062 -9.226562 0.859375 -9.125 0.796875 -9 C 0.742188 -8.882812 0.691406 -8.757812 0.640625 -8.625 C 0.597656 -8.488281 0.566406 -8.375 0.546875 -8.28125 Z M 1.296875 -8.28125 "/></g></g></g><g fill="#000000" fill-opacity="1"><g transform="translate(212.180053, 214.749977)"><g><path d="M 8.53125 -1.875 C 8.238281 -1.875 7.988281 -1.898438 7.78125 -1.953125 C 7.601562 -1.609375 7.394531 -1.289062 7.15625 -1 C 6.914062 -0.707031 6.640625 -0.453125 6.328125 -0.234375 C 6.015625 -0.0234375 5.664062 0.140625 5.28125 0.265625 C 4.894531 0.398438 4.472656 0.46875 4.015625 0.46875 C 3.484375 0.46875 2.992188 0.367188 2.546875 0.171875 C 2.097656 -0.015625 1.707031 -0.273438 1.375 -0.609375 C 1.050781 -0.941406 0.796875 -1.34375 0.609375 -1.8125 C 0.429688 -2.289062 0.34375 -2.816406 0.34375 -3.390625 C 0.34375 -4.117188 0.472656 -4.75 0.734375 -5.28125 C 0.992188 -5.820312 1.296875 -6.269531 1.640625 -6.625 C 1.984375 -6.988281 2.320312 -7.257812 2.65625 -7.4375 C 3 -7.613281 3.257812 -7.703125 3.4375 -7.703125 C 3.625 -7.703125 3.765625 -7.648438 3.859375 -7.546875 C 3.960938 -7.453125 4.015625 -7.316406 4.015625 -7.140625 C 4.015625 -6.953125 3.953125 -6.804688 3.828125 -6.703125 C 3.710938 -6.609375 3.566406 -6.515625 3.390625 -6.421875 C 3.203125 -6.335938 3.003906 -6.210938 2.796875 -6.046875 C 2.597656 -5.878906 2.410156 -5.671875 2.234375 -5.421875 C 2.054688 -5.171875 1.910156 -4.875 1.796875 -4.53125 C 1.679688 -4.1875 1.625 -3.804688 1.625 -3.390625 C 1.625 -3.003906 1.679688 -2.648438 1.796875 -2.328125 C 1.910156 -2.003906 2.070312 -1.722656 2.28125 -1.484375 C 2.5 -1.253906 2.753906 -1.070312 3.046875 -0.9375 C 3.347656 -0.8125 3.679688 -0.75 4.046875 -0.75 C 4.703125 -0.75 5.242188 -0.898438 5.671875 -1.203125 C 6.097656 -1.503906 6.421875 -1.890625 6.640625 -2.359375 C 5.972656 -2.710938 5.421875 -3.210938 4.984375 -3.859375 C 4.554688 -4.515625 4.34375 -5.242188 4.34375 -6.046875 C 4.34375 -6.703125 4.5 -7.234375 4.8125 -7.640625 C 5.125 -8.046875 5.535156 -8.25 6.046875 -8.25 C 6.359375 -8.25 6.648438 -8.175781 6.921875 -8.03125 C 7.191406 -7.882812 7.429688 -7.648438 7.640625 -7.328125 C 7.859375 -7.015625 8.03125 -6.601562 8.15625 -6.09375 C 8.28125 -5.59375 8.34375 -5 8.34375 -4.3125 C 8.34375 -3.945312 8.296875 -3.5625 8.203125 -3.15625 C 8.273438 -3.144531 8.34375 -3.140625 8.40625 -3.140625 C 8.476562 -3.140625 8.550781 -3.140625 8.625 -3.140625 C 9.019531 -3.140625 9.367188 -3.1875 9.671875 -3.28125 C 9.984375 -3.375 10.265625 -3.507812 10.515625 -3.6875 C 10.765625 -3.875 10.988281 -4.109375 11.1875 -4.390625 C 11.382812 -4.671875 11.578125 -5.003906 11.765625 -5.390625 C 11.796875 -5.453125 11.867188 -5.515625 11.984375 -5.578125 C 12.097656 -5.640625 12.210938 -5.671875 12.328125 -5.671875 C 12.472656 -5.671875 12.609375 -5.609375 12.734375 -5.484375 C 12.867188 -5.367188 12.9375 -5.21875 12.9375 -5.03125 C 12.9375 -4.9375 12.910156 -4.832031 12.859375 -4.71875 C 12.816406 -4.613281 12.773438 -4.515625 12.734375 -4.421875 C 12.535156 -4.078125 12.304688 -3.75 12.046875 -3.4375 C 11.796875 -3.125 11.492188 -2.847656 11.140625 -2.609375 C 10.796875 -2.378906 10.40625 -2.195312 9.96875 -2.0625 C 9.539062 -1.925781 9.0625 -1.863281 8.53125 -1.875 Z M 5.609375 -6.1875 C 5.609375 -5.96875 5.632812 -5.738281 5.6875 -5.5 C 5.75 -5.257812 5.835938 -5.019531 5.953125 -4.78125 C 6.078125 -4.550781 6.226562 -4.332031 6.40625 -4.125 C 6.582031 -3.914062 6.789062 -3.738281 7.03125 -3.59375 C 7.0625 -3.832031 7.078125 -4.066406 7.078125 -4.296875 C 7.078125 -4.597656 7.050781 -4.90625 7 -5.21875 C 6.957031 -5.539062 6.894531 -5.835938 6.8125 -6.109375 C 6.726562 -6.378906 6.625 -6.59375 6.5 -6.75 C 6.375 -6.914062 6.222656 -7 6.046875 -7 C 5.984375 -7 5.894531 -6.945312 5.78125 -6.84375 C 5.664062 -6.75 5.609375 -6.53125 5.609375 -6.1875 Z M 5.609375 -6.1875 "/></g></g></g><g fill="#000000" fill-opacity="1"><g transform="translate(223.234713, 214.749977)"><g><path d="M 15.0625 -4.734375 C 15.019531 -4.660156 14.941406 -4.519531 14.828125 -4.3125 C 14.710938 -4.101562 14.5625 -3.859375 14.375 -3.578125 C 14.195312 -3.296875 13.984375 -3 13.734375 -2.6875 C 13.484375 -2.375 13.207031 -2.085938 12.90625 -1.828125 C 12.613281 -1.566406 12.296875 -1.347656 11.953125 -1.171875 C 11.617188 -1.003906 11.269531 -0.921875 10.90625 -0.921875 C 10.3125 -0.921875 9.804688 -1.023438 9.390625 -1.234375 C 8.984375 -1.453125 8.648438 -1.691406 8.390625 -1.953125 C 8.210938 -1.546875 7.988281 -1.175781 7.71875 -0.84375 C 7.457031 -0.519531 7.164062 -0.238281 6.84375 0 C 6.53125 0.25 6.191406 0.441406 5.828125 0.578125 C 5.472656 0.710938 5.109375 0.78125 4.734375 0.78125 C 4.035156 0.78125 3.441406 0.578125 2.953125 0.171875 C 2.460938 -0.234375 2.054688 -0.78125 1.734375 -1.46875 C 1.410156 -2.164062 1.15625 -2.96875 0.96875 -3.875 C 0.789062 -4.789062 0.648438 -5.75 0.546875 -6.75 C 0.453125 -7.75 0.394531 -8.757812 0.375 -9.78125 C 0.351562 -10.8125 0.34375 -11.789062 0.34375 -12.71875 C 0.34375 -14.476562 0.394531 -16.003906 0.5 -17.296875 C 0.601562 -18.597656 0.738281 -19.695312 0.90625 -20.59375 C 1.082031 -21.5 1.285156 -22.234375 1.515625 -22.796875 C 1.753906 -23.367188 2.003906 -23.8125 2.265625 -24.125 C 2.535156 -24.4375 2.804688 -24.648438 3.078125 -24.765625 C 3.347656 -24.878906 3.613281 -24.9375 3.875 -24.9375 C 4.300781 -24.9375 4.675781 -24.8125 5 -24.5625 C 5.320312 -24.3125 5.59375 -23.957031 5.8125 -23.5 C 6.039062 -23.050781 6.210938 -22.507812 6.328125 -21.875 C 6.441406 -21.238281 6.5 -20.535156 6.5 -19.765625 C 6.5 -18.546875 6.363281 -17.285156 6.09375 -15.984375 C 5.832031 -14.691406 5.492188 -13.398438 5.078125 -12.109375 C 4.660156 -10.816406 4.195312 -9.546875 3.6875 -8.296875 C 3.175781 -7.046875 2.671875 -5.863281 2.171875 -4.75 C 2.234375 -4.1875 2.332031 -3.648438 2.46875 -3.140625 C 2.613281 -2.640625 2.789062 -2.191406 3 -1.796875 C 3.21875 -1.410156 3.472656 -1.097656 3.765625 -0.859375 C 4.066406 -0.628906 4.410156 -0.515625 4.796875 -0.515625 C 5.191406 -0.515625 5.554688 -0.625 5.890625 -0.84375 C 6.234375 -1.0625 6.53125 -1.347656 6.78125 -1.703125 C 7.03125 -2.066406 7.226562 -2.476562 7.375 -2.9375 C 7.519531 -3.394531 7.59375 -3.863281 7.59375 -4.34375 C 7.59375 -4.65625 7.5625 -4.972656 7.5 -5.296875 C 7.4375 -5.628906 7.335938 -5.921875 7.203125 -6.171875 C 7.066406 -6.429688 6.898438 -6.640625 6.703125 -6.796875 C 6.515625 -6.960938 6.285156 -7.046875 6.015625 -7.046875 C 5.804688 -7.046875 5.644531 -7 5.53125 -6.90625 C 5.414062 -6.820312 5.332031 -6.722656 5.28125 -6.609375 C 5.226562 -6.503906 5.191406 -6.398438 5.171875 -6.296875 C 5.160156 -6.203125 5.15625 -6.132812 5.15625 -6.09375 C 5.15625 -5.9375 5.1875 -5.78125 5.25 -5.625 C 5.320312 -5.46875 5.457031 -5.328125 5.65625 -5.203125 C 5.851562 -5.054688 5.953125 -4.863281 5.953125 -4.625 C 5.953125 -4.4375 5.882812 -4.285156 5.75 -4.171875 C 5.613281 -4.054688 5.46875 -4 5.3125 -4 C 5.082031 -4 4.878906 -4.066406 4.703125 -4.203125 C 4.523438 -4.335938 4.375 -4.507812 4.25 -4.71875 C 4.125 -4.9375 4.023438 -5.164062 3.953125 -5.40625 C 3.890625 -5.644531 3.859375 -5.863281 3.859375 -6.0625 C 3.859375 -6.394531 3.914062 -6.703125 4.03125 -6.984375 C 4.144531 -7.265625 4.300781 -7.503906 4.5 -7.703125 C 4.695312 -7.898438 4.925781 -8.050781 5.1875 -8.15625 C 5.445312 -8.269531 5.71875 -8.328125 6 -8.328125 C 6.488281 -8.328125 6.910156 -8.210938 7.265625 -7.984375 C 7.628906 -7.753906 7.929688 -7.453125 8.171875 -7.078125 C 8.410156 -6.703125 8.585938 -6.273438 8.703125 -5.796875 C 8.816406 -5.316406 8.875 -4.832031 8.875 -4.34375 C 8.875 -4.050781 8.851562 -3.769531 8.8125 -3.5 C 8.863281 -3.40625 8.9375 -3.285156 9.03125 -3.140625 C 9.132812 -2.992188 9.269531 -2.851562 9.4375 -2.71875 C 9.613281 -2.582031 9.820312 -2.460938 10.0625 -2.359375 C 10.300781 -2.253906 10.582031 -2.203125 10.90625 -2.203125 C 11.175781 -2.203125 11.457031 -2.304688 11.75 -2.515625 C 12.039062 -2.734375 12.316406 -3 12.578125 -3.3125 C 12.847656 -3.625 13.097656 -3.957031 13.328125 -4.3125 C 13.554688 -4.675781 13.742188 -5.007812 13.890625 -5.3125 C 13.953125 -5.425781 14.03125 -5.515625 14.125 -5.578125 C 14.226562 -5.640625 14.34375 -5.671875 14.46875 -5.671875 C 14.664062 -5.671875 14.820312 -5.601562 14.9375 -5.46875 C 15.0625 -5.332031 15.125 -5.175781 15.125 -5 C 15.125 -4.9375 15.101562 -4.847656 15.0625 -4.734375 Z M 1.84375 -6.9375 C 2.226562 -7.894531 2.617188 -8.898438 3.015625 -9.953125 C 3.421875 -11.003906 3.78125 -12.078125 4.09375 -13.171875 C 4.414062 -14.265625 4.679688 -15.367188 4.890625 -16.484375 C 5.097656 -17.609375 5.203125 -18.710938 5.203125 -19.796875 C 5.203125 -20.203125 5.179688 -20.628906 5.140625 -21.078125 C 5.097656 -21.523438 5.023438 -21.9375 4.921875 -22.3125 C 4.816406 -22.695312 4.675781 -23.015625 4.5 -23.265625 C 4.320312 -23.515625 4.097656 -23.640625 3.828125 -23.640625 C 3.734375 -23.640625 3.613281 -23.578125 3.46875 -23.453125 C 3.332031 -23.335938 3.179688 -23.128906 3.015625 -22.828125 C 2.859375 -22.523438 2.703125 -22.101562 2.546875 -21.5625 C 2.390625 -21.03125 2.242188 -20.347656 2.109375 -19.515625 C 1.984375 -18.691406 1.875 -17.695312 1.78125 -16.53125 C 1.695312 -15.375 1.65625 -14.007812 1.65625 -12.4375 C 1.65625 -11.914062 1.660156 -11.382812 1.671875 -10.84375 C 1.679688 -10.300781 1.695312 -9.785156 1.71875 -9.296875 C 1.738281 -8.804688 1.757812 -8.351562 1.78125 -7.9375 C 1.800781 -7.53125 1.820312 -7.195312 1.84375 -6.9375 Z M 1.84375 -6.9375 "/></g></g></g><g fill="#000000" fill-opacity="1"><g transform="translate(236.476384, 214.749977)"><g><path d="M 7 0.234375 C 7.40625 -0.160156 7.8125 -0.566406 8.21875 -0.984375 C 8.625 -1.398438 9.019531 -1.832031 9.40625 -2.28125 C 9.800781 -2.738281 10.164062 -3.210938 10.5 -3.703125 C 10.832031 -4.203125 11.132812 -4.734375 11.40625 -5.296875 C 11.457031 -5.421875 11.535156 -5.515625 11.640625 -5.578125 C 11.742188 -5.640625 11.859375 -5.671875 11.984375 -5.671875 C 12.171875 -5.671875 12.320312 -5.601562 12.4375 -5.46875 C 12.5625 -5.332031 12.625 -5.175781 12.625 -5 C 12.625 -4.914062 12.609375 -4.832031 12.578125 -4.75 C 12.222656 -4.007812 11.816406 -3.332031 11.359375 -2.71875 C 10.910156 -2.101562 10.429688 -1.519531 9.921875 -0.96875 C 9.421875 -0.414062 8.914062 0.117188 8.40625 0.640625 C 7.894531 1.160156 7.40625 1.679688 6.9375 2.203125 C 6.894531 2.992188 6.894531 3.785156 6.9375 4.578125 C 6.976562 5.367188 7 6.207031 7 7.09375 C 7 7.820312 6.976562 8.550781 6.9375 9.28125 C 6.894531 10.007812 6.820312 10.707031 6.71875 11.375 C 6.613281 12.039062 6.472656 12.660156 6.296875 13.234375 C 6.117188 13.816406 5.894531 14.320312 5.625 14.75 C 5.351562 15.175781 5.035156 15.515625 4.671875 15.765625 C 4.304688 16.015625 3.878906 16.140625 3.390625 16.140625 C 2.578125 16.140625 1.953125 15.859375 1.515625 15.296875 C 1.085938 14.734375 0.875 13.953125 0.875 12.953125 C 0.875 12.410156 0.929688 11.820312 1.046875 11.1875 C 1.171875 10.5625 1.335938 9.914062 1.546875 9.25 C 1.765625 8.582031 2.023438 7.90625 2.328125 7.21875 C 2.628906 6.539062 2.957031 5.875 3.3125 5.21875 C 3.664062 4.570312 4.039062 3.957031 4.4375 3.375 C 4.84375 2.789062 5.25 2.257812 5.65625 1.78125 C 5.675781 1.226562 5.703125 0.660156 5.734375 0.078125 C 5.765625 -0.503906 5.796875 -1.050781 5.828125 -1.5625 C 5.535156 -1.03125 5.164062 -0.601562 4.71875 -0.28125 C 4.28125 0.03125 3.800781 0.1875 3.28125 0.1875 C 2.414062 0.1875 1.738281 -0.101562 1.25 -0.6875 C 0.757812 -1.269531 0.515625 -2.066406 0.515625 -3.078125 C 0.515625 -3.816406 0.582031 -4.488281 0.71875 -5.09375 C 0.863281 -5.707031 1.019531 -6.234375 1.1875 -6.671875 C 1.351562 -7.109375 1.503906 -7.441406 1.640625 -7.671875 C 1.773438 -7.910156 1.84375 -8.023438 1.84375 -8.015625 C 1.96875 -8.210938 2.144531 -8.3125 2.375 -8.3125 C 2.570312 -8.3125 2.726562 -8.242188 2.84375 -8.109375 C 2.96875 -7.972656 3.03125 -7.820312 3.03125 -7.65625 C 3.03125 -7.53125 2.992188 -7.414062 2.921875 -7.3125 C 2.929688 -7.320312 2.875 -7.226562 2.75 -7.03125 C 2.632812 -6.832031 2.503906 -6.546875 2.359375 -6.171875 C 2.222656 -5.796875 2.09375 -5.34375 1.96875 -4.8125 C 1.851562 -4.289062 1.796875 -3.71875 1.796875 -3.09375 C 1.796875 -2.46875 1.910156 -1.976562 2.140625 -1.625 C 2.367188 -1.269531 2.738281 -1.09375 3.25 -1.09375 C 3.894531 -1.09375 4.476562 -1.570312 5 -2.53125 C 5.53125 -3.5 5.976562 -4.898438 6.34375 -6.734375 C 6.363281 -6.878906 6.429688 -7 6.546875 -7.09375 C 6.660156 -7.195312 6.796875 -7.25 6.953125 -7.25 C 7.140625 -7.25 7.296875 -7.1875 7.421875 -7.0625 C 7.546875 -6.9375 7.609375 -6.78125 7.609375 -6.59375 C 7.609375 -6.5625 7.582031 -6.359375 7.53125 -5.984375 C 7.488281 -5.617188 7.4375 -5.128906 7.375 -4.515625 C 7.3125 -3.898438 7.242188 -3.179688 7.171875 -2.359375 C 7.109375 -1.546875 7.050781 -0.679688 7 0.234375 Z M 5.640625 3.859375 C 5.128906 4.597656 4.660156 5.378906 4.234375 6.203125 C 3.804688 7.023438 3.4375 7.835938 3.125 8.640625 C 2.820312 9.453125 2.582031 10.226562 2.40625 10.96875 C 2.238281 11.707031 2.15625 12.367188 2.15625 12.953125 C 2.15625 13.546875 2.25 14.007812 2.4375 14.34375 C 2.632812 14.675781 2.941406 14.84375 3.359375 14.84375 C 3.742188 14.84375 4.078125 14.65625 4.359375 14.28125 C 4.648438 13.914062 4.894531 13.390625 5.09375 12.703125 C 5.300781 12.023438 5.453125 11.195312 5.546875 10.21875 C 5.648438 9.25 5.703125 8.160156 5.703125 6.953125 C 5.703125 6.460938 5.691406 5.96875 5.671875 5.46875 C 5.660156 4.96875 5.648438 4.429688 5.640625 3.859375 Z M 5.640625 3.859375 "/></g></g></g></svg>