<svg xmlns="http://www.w3.org/2000/svg" xmlns:xlink="http://www.w3.org/1999/xlink" width="500" zoomAndPan="magnify" viewBox="0 0 375 374.999991" height="500" preserveAspectRatio="xMidYMid meet" version="1.0"><defs><g/><clipPath id="91c4f396fc"><path d="M 170 97.394531 L 205 97.394531 L 205 144 L 170 144 Z M 170 97.394531 " clip-rule="nonzero"/></clipPath><clipPath id="d87de6ef0b"><path d="M 85 142 L 290 142 L 290 224.894531 L 85 224.894531 Z M 85 142 " clip-rule="nonzero"/></clipPath><clipPath id="9782abe982"><path d="M 125.117188 191.316406 L 245.636719 191.316406 L 245.636719 249.886719 L 125.117188 249.886719 Z M 125.117188 191.316406 " clip-rule="nonzero"/></clipPath></defs><g clip-path="url(#91c4f396fc)"><path fill="#ffffff" d="M 188.777344 143.460938 L 185.914062 143.460938 L 185.914062 130.988281 L 186.730469 130.578125 C 186.730469 130.578125 189.082031 129.558594 195.730469 124.855469 C 198.589844 122.808594 201.25 117.699219 201.25 114.019531 C 201.25 110.335938 199.820312 106.859375 197.160156 104.203125 C 194.503906 101.542969 191.027344 100.113281 187.347656 100.113281 C 179.679688 100.113281 173.441406 106.351562 173.441406 114.019531 L 170.578125 114.019531 C 170.679688 104.917969 178.144531 97.457031 187.449219 97.457031 C 191.945312 97.457031 196.136719 99.195312 199.308594 102.363281 C 202.476562 105.53125 204.214844 109.722656 204.214844 114.222656 C 204.214844 118.824219 201.148438 124.753906 197.46875 127.308594 C 192.660156 130.683594 190.105469 132.214844 188.878906 132.828125 Z M 188.777344 143.460938 " fill-opacity="1" fill-rule="nonzero"/></g><g clip-path="url(#d87de6ef0b)"><path fill="#ffffff" d="M 279.152344 225.046875 L 95.640625 224.738281 C 90.835938 224.738281 86.949219 221.773438 85.621094 217.171875 C 84.292969 212.574219 86.03125 207.972656 90.015625 205.417969 L 186.835938 143.050781 C 187.347656 142.746094 187.855469 142.746094 188.367188 143.050781 L 284.980469 205.824219 C 288.96875 208.382812 290.707031 213.085938 289.378906 217.683594 C 287.84375 222.082031 283.957031 225.046875 279.152344 225.046875 Z M 187.449219 145.8125 L 91.449219 207.769531 C 87.871094 210.015625 87.460938 213.800781 88.28125 216.355469 C 88.996094 218.910156 91.449219 221.875 95.640625 221.875 L 279.152344 222.183594 C 283.34375 222.183594 285.800781 219.21875 286.515625 216.664062 C 287.230469 214.105469 286.921875 210.324219 283.34375 208.074219 Z M 187.449219 145.8125 " fill-opacity="1" fill-rule="nonzero"/></g><path fill="#ffffff" d="M 185.8125 140.191406 C 185.300781 140.191406 184.890625 139.984375 184.585938 139.472656 C 184.175781 138.757812 184.382812 137.941406 185.097656 137.53125 L 188.164062 135.589844 C 188.878906 135.179688 189.695312 135.386719 190.105469 136.101562 C 190.515625 136.816406 190.3125 137.632812 189.59375 138.042969 L 186.527344 139.984375 C 186.324219 140.085938 186.117188 140.191406 185.8125 140.191406 Z M 185.8125 140.191406 " fill-opacity="1" fill-rule="nonzero"/><path fill="#ffffff" d="M 185.8125 144.585938 C 185.300781 144.585938 184.890625 144.382812 184.585938 143.871094 C 184.175781 143.15625 184.382812 142.335938 185.097656 141.929688 L 188.164062 139.984375 C 188.878906 139.578125 189.695312 139.78125 190.105469 140.496094 C 190.515625 141.210938 190.3125 142.03125 189.59375 142.4375 L 186.527344 144.382812 C 186.324219 144.585938 186.117188 144.585938 185.8125 144.585938 Z M 185.8125 144.585938 " fill-opacity="1" fill-rule="nonzero"/><path fill="#ffffff" d="M 185.8125 135.691406 C 185.300781 135.691406 184.890625 135.488281 184.585938 134.976562 C 184.175781 134.261719 184.382812 133.441406 185.097656 133.035156 L 188.164062 131.089844 C 188.878906 130.683594 189.695312 130.886719 190.105469 131.601562 C 190.515625 132.316406 190.3125 133.136719 189.59375 133.542969 L 186.527344 135.488281 C 186.324219 135.589844 186.117188 135.691406 185.8125 135.691406 Z M 185.8125 135.691406 " fill-opacity="1" fill-rule="nonzero"/><g clip-path="url(#9782abe982)"><path fill="#000000" d="M 125.117188 191.316406 L 245.683594 191.316406 L 245.683594 249.886719 L 125.117188 249.886719 Z M 125.117188 191.316406 " fill-opacity="1" fill-rule="nonzero"/></g><g fill="#ffffff" fill-opacity="1"><g transform="translate(117.263567, 222.276197)"><g><path d="M 21.3125 -15.109375 L 16.828125 0 L 14.03125 0 L 10.859375 -11.4375 L 7.484375 0 L 4.703125 0.015625 L 0.40625 -15.109375 L 3.046875 -15.109375 L 6.171875 -2.8125 L 9.5625 -15.109375 L 12.359375 -15.109375 L 15.5 -2.875 L 18.65625 -15.109375 Z M 21.3125 -15.109375 "/></g></g></g><g fill="#ffffff" fill-opacity="1"><g transform="translate(140.775682, 222.276197)"><g><path d="M 10.75 -3.09375 L 4.421875 -3.09375 L 3.328125 0 L 0.734375 0 L 6.15625 -15.140625 L 9.03125 -15.140625 L 14.4375 0 L 11.828125 0 Z M 10.046875 -5.109375 L 7.59375 -12.140625 L 5.109375 -5.109375 Z M 10.046875 -5.109375 "/></g></g></g><g fill="#ffffff" fill-opacity="1"><g transform="translate(157.71929, 222.276197)"><g><path d="M 9.484375 0 L 6 -6.046875 L 4.109375 -6.046875 L 4.109375 0 L 1.625 0 L 1.625 -15.109375 L 6.84375 -15.109375 C 8.007812 -15.109375 8.992188 -14.90625 9.796875 -14.5 C 10.597656 -14.09375 11.195312 -13.550781 11.59375 -12.875 C 12 -12.195312 12.203125 -11.4375 12.203125 -10.59375 C 12.203125 -9.601562 11.914062 -8.707031 11.34375 -7.90625 C 10.769531 -7.101562 9.890625 -6.554688 8.703125 -6.265625 L 12.4375 0 Z M 4.109375 -8.03125 L 6.84375 -8.03125 C 7.78125 -8.03125 8.484375 -8.257812 8.953125 -8.71875 C 9.421875 -9.1875 9.65625 -9.8125 9.65625 -10.59375 C 9.65625 -11.375 9.421875 -11.984375 8.953125 -12.421875 C 8.492188 -12.867188 7.789062 -13.09375 6.84375 -13.09375 L 4.109375 -13.09375 Z M 4.109375 -8.03125 "/></g></g></g><g fill="#ffffff" fill-opacity="1"><g transform="translate(173.249153, 222.276197)"><g><path d="M 6.5625 -15.109375 C 8.175781 -15.109375 9.585938 -14.800781 10.796875 -14.1875 C 12.003906 -13.570312 12.9375 -12.6875 13.59375 -11.53125 C 14.257812 -10.382812 14.59375 -9.039062 14.59375 -7.5 C 14.59375 -5.96875 14.257812 -4.632812 13.59375 -3.5 C 12.9375 -2.375 12.003906 -1.507812 10.796875 -0.90625 C 9.585938 -0.300781 8.175781 0 6.5625 0 L 1.625 0 L 1.625 -15.109375 Z M 6.5625 -2.015625 C 8.332031 -2.015625 9.6875 -2.492188 10.625 -3.453125 C 11.570312 -4.410156 12.046875 -5.757812 12.046875 -7.5 C 12.046875 -9.257812 11.570312 -10.628906 10.625 -11.609375 C 9.6875 -12.597656 8.332031 -13.09375 6.5625 -13.09375 L 4.109375 -13.09375 L 4.109375 -2.015625 Z M 6.5625 -2.015625 "/></g></g></g><g fill="#ffffff" fill-opacity="1"><g transform="translate(190.453765, 222.276197)"><g><path d="M 9.484375 0 L 6 -6.046875 L 4.109375 -6.046875 L 4.109375 0 L 1.625 0 L 1.625 -15.109375 L 6.84375 -15.109375 C 8.007812 -15.109375 8.992188 -14.90625 9.796875 -14.5 C 10.597656 -14.09375 11.195312 -13.550781 11.59375 -12.875 C 12 -12.195312 12.203125 -11.4375 12.203125 -10.59375 C 12.203125 -9.601562 11.914062 -8.707031 11.34375 -7.90625 C 10.769531 -7.101562 9.890625 -6.554688 8.703125 -6.265625 L 12.4375 0 Z M 4.109375 -8.03125 L 6.84375 -8.03125 C 7.78125 -8.03125 8.484375 -8.257812 8.953125 -8.71875 C 9.421875 -9.1875 9.65625 -9.8125 9.65625 -10.59375 C 9.65625 -11.375 9.421875 -11.984375 8.953125 -12.421875 C 8.492188 -12.867188 7.789062 -13.09375 6.84375 -13.09375 L 4.109375 -13.09375 Z M 4.109375 -8.03125 "/></g></g></g><g fill="#ffffff" fill-opacity="1"><g transform="translate(205.983626, 222.276197)"><g><path d="M 8.53125 0.15625 C 7.125 0.15625 5.828125 -0.171875 4.640625 -0.828125 C 3.460938 -1.492188 2.53125 -2.414062 1.84375 -3.59375 C 1.15625 -4.78125 0.8125 -6.113281 0.8125 -7.59375 C 0.8125 -9.070312 1.15625 -10.394531 1.84375 -11.5625 C 2.53125 -12.738281 3.460938 -13.65625 4.640625 -14.3125 C 5.828125 -14.976562 7.125 -15.3125 8.53125 -15.3125 C 9.945312 -15.3125 11.242188 -14.976562 12.421875 -14.3125 C 13.609375 -13.65625 14.539062 -12.738281 15.21875 -11.5625 C 15.90625 -10.394531 16.25 -9.070312 16.25 -7.59375 C 16.25 -6.113281 15.90625 -4.78125 15.21875 -3.59375 C 14.539062 -2.414062 13.609375 -1.492188 12.421875 -0.828125 C 11.242188 -0.171875 9.945312 0.15625 8.53125 0.15625 Z M 8.53125 -2 C 9.53125 -2 10.421875 -2.226562 11.203125 -2.6875 C 11.984375 -3.144531 12.59375 -3.796875 13.03125 -4.640625 C 13.476562 -5.492188 13.703125 -6.476562 13.703125 -7.59375 C 13.703125 -8.707031 13.476562 -9.679688 13.03125 -10.515625 C 12.59375 -11.359375 11.984375 -12.003906 11.203125 -12.453125 C 10.421875 -12.910156 9.53125 -13.140625 8.53125 -13.140625 C 7.53125 -13.140625 6.632812 -12.910156 5.84375 -12.453125 C 5.0625 -12.003906 4.445312 -11.359375 4 -10.515625 C 3.5625 -9.679688 3.34375 -8.707031 3.34375 -7.59375 C 3.34375 -6.476562 3.5625 -5.492188 4 -4.640625 C 4.445312 -3.796875 5.0625 -3.144531 5.84375 -2.6875 C 6.632812 -2.226562 7.53125 -2 8.53125 -2 Z M 8.53125 -2 "/></g></g></g><g fill="#ffffff" fill-opacity="1"><g transform="translate(224.819495, 222.276197)"><g><path d="M 9.71875 -7.765625 C 10.53125 -7.617188 11.21875 -7.191406 11.78125 -6.484375 C 12.351562 -5.773438 12.640625 -4.96875 12.640625 -4.0625 C 12.640625 -3.300781 12.4375 -2.609375 12.03125 -1.984375 C 11.632812 -1.367188 11.054688 -0.882812 10.296875 -0.53125 C 9.546875 -0.175781 8.671875 0 7.671875 0 L 1.625 0 L 1.625 -15.109375 L 7.390625 -15.109375 C 8.421875 -15.109375 9.304688 -14.9375 10.046875 -14.59375 C 10.785156 -14.25 11.34375 -13.78125 11.71875 -13.1875 C 12.09375 -12.601562 12.28125 -11.945312 12.28125 -11.21875 C 12.28125 -10.351562 12.046875 -9.628906 11.578125 -9.046875 C 11.117188 -8.460938 10.5 -8.035156 9.71875 -7.765625 Z M 4.109375 -8.765625 L 7.171875 -8.765625 C 7.984375 -8.765625 8.617188 -8.945312 9.078125 -9.3125 C 9.535156 -9.6875 9.765625 -10.222656 9.765625 -10.921875 C 9.765625 -11.597656 9.535156 -12.128906 9.078125 -12.515625 C 8.617188 -12.898438 7.984375 -13.09375 7.171875 -13.09375 L 4.109375 -13.09375 Z M 7.453125 -2.015625 C 8.296875 -2.015625 8.957031 -2.21875 9.4375 -2.625 C 9.914062 -3.03125 10.15625 -3.597656 10.15625 -4.328125 C 10.15625 -5.066406 9.898438 -5.65625 9.390625 -6.09375 C 8.890625 -6.53125 8.21875 -6.75 7.375 -6.75 L 4.109375 -6.75 L 4.109375 -2.015625 Z M 7.453125 -2.015625 "/></g></g></g><g fill="#ffffff" fill-opacity="1"><g transform="translate(240.305856, 222.276197)"><g><path d="M 12.828125 -15.109375 L 7.828125 -5.484375 L 7.828125 0 L 5.34375 0 L 5.34375 -5.484375 L 0.328125 -15.109375 L 3.09375 -15.109375 L 6.59375 -7.703125 L 10.09375 -15.109375 Z M 12.828125 -15.109375 "/></g></g></g></svg>