<svg xmlns="http://www.w3.org/2000/svg" xmlns:xlink="http://www.w3.org/1999/xlink" width="500" zoomAndPan="magnify" viewBox="0 0 375 374.999991" height="500" preserveAspectRatio="xMidYMid meet" version="1.0"><defs><g/><clipPath id="6f9a3bf4af"><path d="M 51 93 L 328 93 L 328 245.691406 L 51 245.691406 Z M 51 93 " clip-rule="nonzero"/></clipPath></defs><g clip-path="url(#6f9a3bf4af)"><path fill="#000000" d="M 189.578125 160.15625 L 314.425781 224.167969 C 319.007812 226.519531 319.15625 231.515625 314.828125 234.347656 L 314.824219 234.339844 C 313.125 235.355469 311.28125 235.84375 309.296875 235.804688 L 69.855469 235.804688 C 61.304688 235.804688 58.117188 227.558594 64.730469 224.167969 Z M 205.328125 116.746094 C 205.351562 123.160156 215.15625 123.242188 215.117188 116.617188 C 215.042969 102.605469 200.296875 92.671875 189.597656 93.308594 C 177.992188 93.515625 169.960938 99.902344 166.019531 108.210938 C 158.933594 123.152344 165.753906 142.402344 184.664062 146.183594 L 184.664062 151.675781 L 60.273438 215.453125 C 44.425781 223.578125 51.085938 245.632812 69.855469 245.632812 L 309.296875 245.632812 C 311.195312 245.648438 313.058594 245.398438 314.882812 244.890625 C 316.710938 244.378906 318.433594 243.625 320.046875 242.628906 L 320.042969 242.621094 C 330.566406 236.011719 330.511719 221.417969 318.878906 215.453125 C 277.417969 194.199219 235.957031 172.941406 194.492188 151.679688 L 194.492188 141.894531 L 194.480469 141.894531 C 194.480469 141.585938 194.453125 141.277344 194.394531 140.976562 C 194.335938 140.671875 194.25 140.378906 194.140625 140.09375 C 194.027344 139.804688 193.886719 139.53125 193.722656 139.269531 C 193.558594 139.011719 193.371094 138.769531 193.160156 138.542969 C 192.949219 138.316406 192.71875 138.113281 192.46875 137.933594 C 192.222656 137.75 191.957031 137.59375 191.679688 137.460938 C 191.402344 137.328125 191.113281 137.222656 190.8125 137.144531 C 190.515625 137.066406 190.210938 137.019531 189.90625 136.996094 C 165.917969 135.390625 169.011719 103.117188 190.097656 103.117188 C 196.609375 103.117188 205.289062 108.992188 205.328125 116.746094 Z M 205.328125 116.746094 " fill-opacity="1" fill-rule="nonzero"/></g><path stroke-linecap="butt" transform="matrix(0.75, 0, 0, 0.75, 15.458304, 164.002139)" fill="none" stroke-linejoin="miter" d="M 41.201431 22.007566 C 42.539973 20.070066 44.20664 18.721108 46.211848 17.955483 C 48.222265 17.195066 50.123307 16.809649 51.909765 16.809649 C 52.784765 16.809649 53.89414 16.976316 55.232682 17.299233 C 56.571224 17.627358 57.977474 18.226316 59.451432 19.106524 C 60.920182 19.971108 62.321224 21.226316 63.649349 22.866941 C 64.987891 24.49715 66.092058 26.648192 66.972266 29.325275 C 67.52435 30.93465 67.9931 32.3409 68.388933 33.538817 C 68.779558 34.731526 69.175391 35.929442 69.566016 37.132567 C 69.96185 38.325276 70.409766 39.799234 70.914975 41.554443 C 71.560808 43.533609 72.076433 45.606526 72.467058 47.773193 C 72.862892 49.934652 73.14935 52.299235 73.331642 54.87736 C 73.701433 53.59611 74.170183 52.304443 74.748308 51.012777 C 75.321225 49.72111 75.998308 48.403401 76.784767 47.06486 C 78.722267 43.804443 79.592059 40.231526 79.39935 36.340901 C 79.222267 32.439859 78.347267 28.695067 76.784767 25.106525 C 75.909767 23.127358 74.722267 22.038816 73.227475 21.835691 C 71.732683 21.62215 70.456641 22.111733 69.39935 23.304441 L 68.14935 22.007566 C 69.534766 20.070066 71.227475 18.721108 73.227475 17.955483 C 75.227475 17.195066 77.107684 16.809649 78.862892 16.809649 C 79.784767 16.809649 80.909767 16.976316 82.232684 17.299233 C 83.571226 17.627358 84.977476 18.226316 86.451434 19.106524 C 87.925393 19.971108 89.326434 21.226316 90.664976 22.866941 C 92.003518 24.49715 93.112893 26.648192 93.987893 29.325275 L 97.920185 41.554443 C 98.524352 43.533609 99.02956 45.59611 99.43581 47.741943 C 99.852477 49.87736 100.15456 52.231527 100.347268 54.809652 C 100.706643 53.570068 101.175393 52.294027 101.74831 50.981527 C 102.331644 49.663818 102.987894 48.361735 103.722269 47.06486 C 105.149352 44.674234 106.013935 42.054443 106.316019 39.210692 C 106.62331 36.351317 106.414977 33.49715 105.691019 30.642984 C 104.982685 27.783608 103.84206 25.169025 102.269144 22.799233 C 100.706643 20.424233 98.774352 18.549233 96.46706 17.163816 L 117.399353 17.163816 C 117.399353 19.648191 117.024353 22.262775 116.284769 25.007567 C 115.555603 27.752358 114.597269 30.460692 113.420186 33.137775 C 112.248311 35.799234 111.003519 38.320067 109.691019 40.689859 C 108.383727 43.064859 107.159769 45.122151 106.013935 46.866943 C 104.675394 48.887776 103.612894 51.007568 102.826435 53.22111 C 102.039977 55.43986 101.482685 57.491944 101.15456 59.37736 C 100.84206 61.267986 100.68581 62.809652 100.68581 64.002361 L 98.899352 64.002361 C 98.899352 61.648194 98.59206 59.809652 97.987893 58.486735 C 97.388935 57.148194 96.597268 56.148194 95.607685 55.481527 C 94.618101 54.809652 93.545185 54.299235 92.388935 53.950277 C 91.237893 53.601318 90.097268 53.267985 88.961851 52.955485 C 87.836851 52.62736 86.826434 52.142985 85.925392 51.50236 C 85.039976 50.851318 84.388934 49.882568 83.972267 48.601318 C 83.602476 47.486735 83.237892 46.392985 82.894142 45.31486 C 82.555601 44.231526 82.243101 43.189859 81.961851 42.174234 C 81.456642 43.044026 80.96185 43.866943 80.477475 44.653401 C 79.998309 45.445068 79.52435 46.179443 79.060809 46.866943 C 77.727475 48.887776 76.664975 51.007568 75.873308 53.22111 C 75.102475 55.43986 74.539975 57.491944 74.191017 59.37736 C 73.852475 61.267986 73.685808 62.809652 73.685808 64.002361 L 71.946225 64.002361 C 71.946225 61.648194 71.64935 59.809652 71.050391 58.486735 C 70.456641 57.148194 69.664975 56.148194 68.675391 55.481527 C 67.685808 54.809652 66.612891 54.299235 65.451433 53.950277 C 64.305599 53.601318 63.164974 53.267985 62.029558 52.955485 C 60.904557 52.62736 59.894141 52.142985 58.993099 51.50236 C 58.092057 50.851318 57.435807 49.882568 57.019141 48.601318 C 55.545182 44.174234 54.316015 39.955484 53.326432 35.955484 C 52.336849 31.950275 51.149348 28.335692 49.76914 25.106525 C 48.946223 23.127358 47.784765 22.038816 46.279557 21.835691 C 44.779556 21.62215 43.482681 22.111733 42.383723 23.304441 Z M 143.78998 26.137775 C 147.748313 26.137775 151.050397 26.960692 153.691022 28.601317 C 156.347272 30.231525 158.232689 32.450275 159.357689 35.262776 C 160.493106 38.070067 160.763939 41.273193 160.170189 44.856526 C 159.706647 47.622151 159.498314 49.976318 159.545189 51.90861 C 159.586856 53.840902 160.279564 55.40861 161.618106 56.611735 C 162.539981 57.387777 163.539981 57.674235 164.618106 57.47111 C 165.701439 57.257569 166.789981 56.601319 167.894148 55.50236 L 168.935815 56.611735 C 167.972273 57.892985 166.727481 59.090902 165.211856 60.205486 C 163.691023 61.309652 162.045189 62.231527 160.269147 62.971111 C 158.493106 63.700277 156.691022 64.122152 154.873314 64.236736 C 153.060814 64.361736 151.357688 64.080486 149.763938 63.392986 C 148.175397 62.695069 146.857688 61.491944 145.800396 59.78361 C 145.607688 61.075277 144.951438 62.148194 143.826438 63.002361 C 142.701438 63.846111 140.691021 64.267986 137.789979 64.267986 C 131.65977 64.267986 127.144145 63.330486 124.243103 61.455486 C 121.342061 59.56486 119.894145 56.84611 119.894145 53.288818 C 119.894145 45.97111 126.289978 42.309651 139.086854 42.309651 C 140.154563 42.309651 141.180604 42.335693 142.170188 42.377359 C 143.159771 42.424234 144.097271 42.491943 144.972271 42.580484 C 145.524355 38.398192 145.670188 35.210692 145.409771 33.017984 C 145.16498 30.825275 144.592063 29.387775 143.691021 28.700275 C 142.78998 28.012775 141.602479 27.87215 140.133729 28.2784 C 139.211854 28.55965 138.539979 29.18465 138.123313 30.1534 C 137.706646 31.116942 137.362896 32.24715 137.081646 33.538817 C 136.810812 34.825276 136.446229 36.085692 135.982687 37.335692 C 135.524354 38.585692 134.821229 39.622151 133.873312 40.455484 C 132.930604 41.278401 131.560812 41.689859 129.758729 41.689859 C 127.779562 41.689859 126.164978 41.226318 124.920187 40.304443 C 123.680603 39.382567 122.831645 37.830484 122.373312 35.648192 C 121.90977 33.455484 121.888936 30.450275 122.305603 26.627358 L 124.107687 26.627358 C 124.107687 27.919025 124.321228 28.991942 124.748312 29.846109 C 125.19102 30.689859 125.987895 31.111734 127.144145 31.111734 C 128.248312 31.111734 129.362895 30.861734 130.482687 30.351317 C 131.618104 29.846109 132.831646 29.273192 134.112896 28.632567 C 135.404562 27.991942 136.842062 27.419025 138.430604 26.913817 C 140.024354 26.398192 141.810813 26.137775 143.78998 26.137775 Z M 143.993105 51.90861 C 144.03998 50.715902 144.128521 49.50236 144.263938 48.262776 C 144.409771 47.017985 144.57123 45.747151 144.753521 44.455484 L 144.753521 44.169026 C 142.967063 43.939859 141.274354 43.851318 139.675396 43.898193 C 138.092063 43.939859 136.816021 44.215901 135.847271 44.721109 C 134.508729 45.37736 133.743104 46.601318 133.555604 48.398193 C 133.373312 50.18986 133.769146 52.278402 134.732687 54.674235 C 135.982687 57.809652 137.321229 59.919027 138.748313 60.997152 C 140.175396 62.075277 141.560813 62.294027 142.899355 61.653402 C 143.44623 61.372152 143.78998 60.726319 143.925396 59.715902 C 144.060813 58.705485 144.107688 57.497152 144.060813 56.090902 C 144.013938 54.684652 143.993105 53.288818 143.993105 51.90861 Z M 163.269148 26.627358 L 165.003523 26.627358 C 165.003523 28.382567 165.310814 29.663817 165.930606 30.471109 C 166.550398 31.267984 167.362898 31.741942 168.378523 31.887775 C 169.38894 32.023192 170.539981 31.971109 171.831648 31.736734 C 172.993107 31.512775 174.003523 31.111734 174.868107 30.538817 C 175.748315 29.955484 176.612898 29.320067 177.467065 28.632567 C 178.321232 27.93465 179.26394 27.346108 180.300399 26.861733 C 181.336857 26.377358 182.566024 26.137775 183.993107 26.137775 C 186.019149 26.137775 187.592066 26.398192 188.717066 26.913817 C 189.852483 27.419025 190.727483 27.991942 191.347274 28.632567 C 191.977483 29.273192 192.566024 29.846109 193.118108 30.351317 C 193.670191 30.861734 194.3629 31.111734 195.191025 31.111734 C 196.336858 31.111734 197.133733 30.689859 197.571233 29.846109 C 198.008733 28.991942 198.227483 27.919025 198.227483 26.627358 L 200.013942 26.627358 C 200.253525 30.450275 200.066025 33.455484 199.461858 35.648192 C 198.8629 37.830484 197.89415 39.382567 196.560816 40.304443 C 195.232691 41.226318 193.58165 41.689859 191.602483 41.689859 C 189.800399 41.689859 188.394149 41.299234 187.383732 40.523193 C 186.373316 39.736734 185.597274 38.767984 185.055607 37.622151 C 184.529566 36.465901 184.102482 35.299234 183.774357 34.132567 C 183.461857 32.950275 183.081649 31.93465 182.644149 31.080484 C 182.206649 30.226317 181.550399 29.731525 180.67019 29.596109 C 179.805607 29.460692 179.185815 29.783609 178.816024 30.575275 C 178.446232 31.351317 178.258732 32.361734 178.258732 33.606525 L 178.394149 64.002361 L 163.269148 64.002361 Z M 223.019151 64.486736 C 218.93061 64.486736 215.336859 63.674236 212.243109 62.044027 C 209.164984 60.403402 206.779567 58.142985 205.092067 55.262777 C 203.420192 52.387777 202.58165 49.059651 202.58165 45.278401 C 202.58165 42.471109 203.164983 39.887776 204.33165 37.538817 C 205.513942 35.189859 207.034775 33.163817 208.888942 31.4659 C 210.753526 29.757567 212.753526 28.445067 214.894151 27.517983 C 217.039984 26.596108 219.102485 26.137775 221.081651 26.137775 C 222.050401 26.137775 223.232693 26.377358 224.638943 26.861733 C 226.045193 27.346108 227.46186 28.189858 228.888944 29.392983 L 228.888944 17.163816 L 230.628527 17.163816 C 230.628527 18.773191 230.946235 19.960691 231.58686 20.726316 C 232.227485 21.476316 233.05561 22.007566 234.066027 22.30965 C 235.092069 22.611733 236.175402 22.830483 237.321236 22.9659 C 238.467069 23.101316 239.550403 23.299233 240.560819 23.55965 C 241.581653 23.804441 242.414986 24.2784 243.055611 24.976317 C 243.696236 25.658608 244.019153 26.762775 244.019153 28.2784 L 244.019153 64.002361 L 242.300403 64.002361 C 242.300403 62.346111 242.055611 61.148194 241.571236 60.408611 C 241.086861 59.663819 240.467069 59.215902 239.701444 59.059652 C 238.946236 58.903402 238.175402 58.820069 237.388944 58.820069 C 236.378527 58.820069 235.316027 59.106527 234.201444 59.684652 C 233.102485 60.257569 231.946235 60.913819 230.74311 61.653402 C 229.55561 62.387777 228.310818 63.044027 227.019152 63.627361 C 225.737902 64.200277 224.404568 64.486736 223.019151 64.486736 Z M 227.170193 61.653402 C 228.092068 61.148194 228.607693 60.158611 228.722277 58.68986 C 228.831652 57.215902 228.888944 55.34611 228.888944 53.085693 L 228.888944 33.387775 C 227.003527 31.142984 225.045193 29.741942 223.019151 29.189858 C 220.998318 28.627358 219.248318 28.80965 217.774359 29.731525 C 216.482693 30.55965 215.638943 31.887775 215.248318 33.710692 C 214.862901 35.533609 214.805609 37.653401 215.076443 40.070068 C 215.357693 42.486734 215.795193 45.028401 216.394151 47.68986 C 216.899359 49.726318 217.581651 51.679443 218.435818 53.544027 C 219.289985 55.398194 220.24311 57.007569 221.300401 58.366944 C 222.357693 59.726319 223.404568 60.721111 224.435818 61.351319 C 225.472277 61.971111 226.383735 62.070069 227.170193 61.653402 Z M 247.196236 26.627358 L 248.93582 26.627358 C 248.93582 28.382567 249.243112 29.663817 249.862903 30.471109 C 250.477487 31.267984 251.295195 31.741942 252.305612 31.887775 C 253.321237 32.023192 254.472279 31.971109 255.763945 31.736734 C 256.920195 31.512775 257.93582 31.111734 258.800404 30.538817 C 259.675404 29.955484 260.545196 29.320067 261.399362 28.632567 C 262.253529 27.93465 263.196237 27.346108 264.232696 26.861733 C 265.263946 26.377358 266.498321 26.137775 267.925404 26.137775 C 269.946238 26.137775 271.524363 26.398192 272.644155 26.913817 C 273.779571 27.419025 274.65978 27.991942 275.279572 28.632567 C 275.904572 29.273192 276.498322 29.846109 277.050405 30.351317 C 277.59728 30.861734 278.289988 31.111734 279.123322 31.111734 C 280.269155 31.111734 281.060822 30.689859 281.498322 29.846109 C 281.94103 28.991942 282.15978 27.919025 282.15978 26.627358 L 283.946239 26.627358 C 284.180614 30.450275 283.998322 33.455484 283.388947 35.648192 C 282.795197 37.830484 281.826447 39.382567 280.487905 40.304443 C 279.15978 41.226318 277.508738 41.689859 275.529572 41.689859 C 273.732696 41.689859 272.326446 41.299234 271.31603 40.523193 C 270.300405 39.736734 269.524363 38.767984 268.987904 37.622151 C 268.456654 36.465901 268.029571 35.299234 267.706654 34.132567 C 267.388946 32.950275 267.013946 31.93465 266.576446 31.080484 C 266.133738 30.226317 265.477488 29.731525 264.602488 29.596109 C 263.737904 29.460692 263.118112 29.783609 262.748321 30.575275 C 262.373321 31.351317 262.191029 32.361734 262.191029 33.606525 L 262.326446 64.002361 L 247.196236 64.002361 Z M 307.154574 26.137775 C 311.258741 26.137775 314.847282 26.960692 317.930616 28.601317 C 321.024366 30.231525 323.430616 32.471109 325.149366 35.330484 C 326.878533 38.184651 327.748325 41.502359 327.748325 45.278401 C 327.748325 49.059651 326.878533 52.387777 325.149366 55.262777 C 323.430616 58.142985 321.024366 60.403402 317.930616 62.044027 C 314.847282 63.674236 311.258741 64.486736 307.154574 64.486736 C 303.013948 64.486736 299.399365 63.674236 296.310823 62.044027 C 293.227489 60.403402 290.821239 58.142985 289.092072 55.262777 C 287.368114 52.387777 286.508739 49.059651 286.508739 45.278401 C 286.508739 41.502359 287.368114 38.184651 289.092072 35.330484 C 290.821239 32.471109 293.227489 30.231525 296.310823 28.601317 C 299.399365 26.960692 303.013948 26.137775 307.154574 26.137775 Z M 316.967074 60.830486 C 318.305616 59.997152 318.925408 58.679444 318.826449 56.882569 C 318.732699 55.085694 318.102491 52.919027 316.935824 50.387777 C 315.763949 47.861735 314.211866 45.070068 312.279574 42.023193 C 310.347282 38.945067 308.47749 36.335692 306.680615 34.200275 C 304.88374 32.049234 303.19624 30.570067 301.623323 29.74715 C 300.060823 28.913817 298.612906 28.908608 297.284781 29.731525 C 295.993115 30.55965 295.38374 31.877359 295.451448 33.674234 C 295.513948 35.476317 296.13374 37.637776 297.305615 40.169026 C 298.482698 42.700276 300.03999 45.507568 301.97749 48.601318 C 303.956657 51.637777 305.831657 54.231527 307.607699 56.37736 C 309.38374 58.512777 311.066032 59.997152 312.649366 60.830486 C 314.237907 61.648194 315.675408 61.648194 316.967074 60.830486 Z M 351.571243 26.137775 C 355.67541 26.137775 359.258744 26.960692 362.316036 28.601317 C 365.383744 30.231525 367.769161 32.471109 369.467078 35.330484 C 371.175411 38.184651 372.029578 41.502359 372.029578 45.278401 C 372.029578 48.090901 371.441036 50.669027 370.258744 53.023193 C 369.086869 55.372152 367.571244 57.413819 365.706661 59.142985 C 363.836869 60.861736 361.831661 62.184652 359.685827 63.106527 C 357.545202 64.028402 355.48791 64.486736 353.508743 64.486736 C 351.758743 64.486736 350.201451 64.169027 348.836868 63.528402 C 347.48791 62.877361 346.211868 62.137777 345.008743 61.320069 C 343.821243 60.486736 342.566034 59.804444 341.248326 59.278402 C 339.935826 58.736735 338.451451 58.585694 336.795201 58.820069 C 335.967076 58.913819 335.211867 59.304444 334.539992 60.00236 C 333.873325 60.689861 333.336867 61.424236 332.9202 62.210694 C 332.51395 62.986736 332.310825 63.585694 332.310825 64.002361 L 330.57645 64.002361 L 330.57645 28.2784 C 330.57645 26.762775 330.894159 25.658608 331.534784 24.976317 C 332.185825 24.2784 333.019159 23.804441 334.029575 23.55965 C 335.0452 23.299233 336.112909 23.101316 337.237909 22.9659 C 338.373326 22.830483 339.446242 22.611733 340.456659 22.30965 C 341.467076 22.007566 342.295201 21.476316 342.935826 20.726316 C 343.586868 19.960691 343.914993 18.773191 343.914993 17.163816 L 345.633743 17.163816 L 345.633743 27.939858 C 346.555618 27.43465 347.513951 27.007567 348.503535 26.658608 C 349.493118 26.30965 350.513951 26.137775 351.571243 26.137775 Z M 345.633743 34.705484 L 345.633743 57.153402 C 347.524368 59.413819 349.467076 60.835694 351.472285 61.419027 C 353.472285 61.991944 355.23791 61.794027 356.763952 60.830486 C 358.092077 59.997152 358.951452 58.669027 359.347285 56.851319 C 359.73791 55.028402 359.795202 52.90861 359.513952 50.491943 C 359.243119 48.075276 358.789994 45.554443 358.149369 42.934651 C 357.685827 40.898193 357.01916 38.955484 356.14416 37.101317 C 355.263952 35.231526 354.310827 33.62215 353.274368 32.257567 C 352.23791 30.898192 351.201452 29.898192 350.154576 29.257567 C 349.118118 28.606525 348.217076 28.486733 347.441035 28.9034 C 346.696243 29.273192 346.20666 29.9659 345.972285 30.976317 C 345.748326 31.991942 345.633743 33.231525 345.633743 34.705484 Z M 393.993121 61.924236 C 395.972288 61.788819 397.487913 60.986736 398.545205 59.512777 C 399.602496 58.038819 400.274371 56.12736 400.555621 53.778402 C 400.836871 51.429443 400.77958 48.898193 400.383746 46.18986 C 399.993121 43.471109 399.31083 40.799234 398.347288 38.179442 C 397.378538 35.549234 396.180621 33.210692 394.753538 31.163817 C 393.326454 29.106525 391.711871 27.596108 389.909787 26.627358 L 409.946247 26.627358 C 410.868122 28.142983 411.388955 30.044025 411.49833 32.325275 C 411.612914 34.611734 411.482705 37.038817 411.112914 39.611734 C 410.753539 42.189859 410.295205 44.674234 409.74833 47.06486 C 409.196247 49.460693 408.664997 51.491943 408.159789 53.153402 C 407.138955 56.653402 405.888955 60.163819 404.414997 63.695069 C 402.941038 67.215903 401.263955 70.41382 399.37333 73.294028 C 397.482705 76.169028 395.409788 78.481528 393.149371 80.22632 C 390.899371 81.97632 388.487912 82.856529 385.914995 82.856529 C 384.206662 82.856529 382.784787 82.580487 381.64937 82.028404 C 380.52437 81.47632 379.566037 80.840904 378.779578 80.122153 C 378.003537 79.41382 377.269162 78.783612 376.571245 78.236737 C 375.883745 77.684653 375.102495 77.408612 374.227495 77.408612 C 372.664995 77.408612 371.664995 77.840903 371.227495 78.705487 C 370.784786 79.585695 370.566036 80.778404 370.566036 82.299237 L 369.050411 82.299237 C 368.779578 80.419029 368.763953 78.486737 368.998328 76.497153 C 369.222286 74.517986 369.732703 72.674236 370.519161 70.965903 C 371.295203 69.267986 372.414995 67.887778 373.888953 66.835694 C 375.362911 65.778403 377.227495 65.247153 379.487912 65.247153 C 381.232704 65.247153 382.685829 65.523194 383.857704 66.075278 C 385.039995 66.627361 386.045204 67.309653 386.878537 68.132569 C 387.706662 68.965903 388.446246 69.794028 389.086871 70.627361 C 389.727496 71.460695 390.388954 72.153403 391.076454 72.700278 C 391.774371 73.252361 392.602496 73.528403 393.571246 73.528403 C 396.112913 73.528403 398.045205 72.252361 399.37333 69.700278 C 400.711871 67.148194 401.477497 63.840902 401.664997 59.78361 C 400.237913 61.169027 398.638955 62.262777 396.862913 63.070069 C 395.081663 63.872152 393.185829 64.267986 391.159787 64.267986 C 387.159787 64.267986 383.831662 63.455486 381.175412 61.825277 C 378.534787 60.195069 376.664995 57.960694 375.576453 55.12736 C 374.498328 52.294027 374.232703 49.080485 374.784786 45.481526 C 375.201453 42.726318 375.39937 40.372151 375.373328 38.413817 C 375.352495 36.450276 374.670203 34.892984 373.331661 33.741942 C 372.409786 32.955484 371.39937 32.679442 370.300411 32.919025 C 369.196244 33.142984 368.112911 33.783609 367.045203 34.840901 L 365.946244 33.741942 C 367.138953 32.226317 368.691036 30.820067 370.602494 29.5284 C 372.513953 28.236733 374.566036 27.2784 376.758745 26.658608 C 378.951453 26.044025 381.081662 25.929442 383.14937 26.325275 C 385.217079 26.705483 386.987912 27.820067 388.461871 29.663817 C 389.576454 31.044025 390.289996 32.611734 390.602496 34.366942 C 390.930621 36.111734 391.019162 37.965901 390.873329 39.934651 C 390.737912 41.887776 390.513954 43.877359 390.201454 45.903401 C 389.638954 49.445068 389.368121 52.299235 389.388954 54.47111 C 389.425412 56.62736 389.644162 58.25236 390.045204 59.34611 C 390.461871 60.424236 391.013954 61.137777 391.701454 61.486736 C 392.399371 61.825277 393.159788 61.971111 393.993121 61.924236 Z M 393.993121 61.924236 " stroke="#e7e7e7" stroke-width="7.599064" stroke-opacity="1" stroke-miterlimit="4"/><g fill="#000000" fill-opacity="1"><g transform="translate(49.887989, 212.002136)"><g><path d="M -3.515625 -31.5 C -2.515625 -32.945312 -1.265625 -33.957031 0.234375 -34.53125 C 1.734375 -35.101562 3.15625 -35.390625 4.5 -35.390625 C 5.15625 -35.390625 5.984375 -35.265625 6.984375 -35.015625 C 7.992188 -34.773438 9.050781 -34.328125 10.15625 -33.671875 C 11.257812 -33.015625 12.3125 -32.070312 13.3125 -30.84375 C 14.3125 -29.625 15.140625 -28.015625 15.796875 -26.015625 C 16.210938 -24.804688 16.566406 -23.75 16.859375 -22.84375 C 17.160156 -21.945312 17.457031 -21.050781 17.75 -20.15625 C 18.039062 -19.257812 18.375 -18.15625 18.75 -16.84375 C 19.238281 -15.351562 19.628906 -13.796875 19.921875 -12.171875 C 20.210938 -10.546875 20.425781 -8.769531 20.5625 -6.84375 C 20.84375 -7.8125 21.195312 -8.773438 21.625 -9.734375 C 22.0625 -10.703125 22.570312 -11.6875 23.15625 -12.6875 C 24.613281 -15.144531 25.269531 -17.832031 25.125 -20.75 C 24.988281 -23.664062 24.332031 -26.472656 23.15625 -29.171875 C 22.5 -30.648438 21.609375 -31.46875 20.484375 -31.625 C 19.367188 -31.78125 18.410156 -31.410156 17.609375 -30.515625 L 16.6875 -31.5 C 17.71875 -32.945312 18.984375 -33.957031 20.484375 -34.53125 C 21.992188 -35.101562 23.40625 -35.390625 24.71875 -35.390625 C 25.40625 -35.390625 26.25 -35.265625 27.25 -35.015625 C 28.25 -34.773438 29.300781 -34.328125 30.40625 -33.671875 C 31.519531 -33.015625 32.578125 -32.070312 33.578125 -30.84375 C 34.578125 -29.625 35.40625 -28.015625 36.0625 -26.015625 L 39.015625 -16.84375 C 39.460938 -15.351562 39.84375 -13.804688 40.15625 -12.203125 C 40.46875 -10.597656 40.691406 -8.828125 40.828125 -6.890625 C 41.109375 -7.828125 41.460938 -8.785156 41.890625 -9.765625 C 42.316406 -10.753906 42.804688 -11.726562 43.359375 -12.6875 C 44.429688 -14.488281 45.078125 -16.457031 45.296875 -18.59375 C 45.523438 -20.738281 45.375 -22.878906 44.84375 -25.015625 C 44.3125 -27.160156 43.457031 -29.125 42.28125 -30.90625 C 41.101562 -32.6875 39.648438 -34.09375 37.921875 -35.125 L 53.625 -35.125 C 53.625 -33.257812 53.347656 -31.300781 52.796875 -29.25 C 52.242188 -27.195312 51.523438 -25.164062 50.640625 -23.15625 C 49.765625 -21.15625 48.832031 -19.265625 47.84375 -17.484375 C 46.863281 -15.703125 45.941406 -14.15625 45.078125 -12.84375 C 44.078125 -11.320312 43.28125 -9.734375 42.6875 -8.078125 C 42.101562 -6.421875 41.691406 -4.882812 41.453125 -3.46875 C 41.210938 -2.050781 41.09375 -0.894531 41.09375 0 L 39.734375 0 C 39.734375 -1.757812 39.507812 -3.140625 39.0625 -4.140625 C 38.613281 -5.140625 38.019531 -5.890625 37.28125 -6.390625 C 36.539062 -6.898438 35.738281 -7.28125 34.875 -7.53125 C 34.007812 -7.789062 33.148438 -8.039062 32.296875 -8.28125 C 31.453125 -8.53125 30.691406 -8.894531 30.015625 -9.375 C 29.347656 -9.863281 28.859375 -10.585938 28.546875 -11.546875 C 28.273438 -12.378906 28.007812 -13.203125 27.75 -14.015625 C 27.488281 -14.828125 27.253906 -15.613281 27.046875 -16.375 C 26.660156 -15.71875 26.285156 -15.09375 25.921875 -14.5 C 25.566406 -13.914062 25.21875 -13.363281 24.875 -12.84375 C 23.875 -11.320312 23.078125 -9.734375 22.484375 -8.078125 C 21.898438 -6.421875 21.476562 -4.882812 21.21875 -3.46875 C 20.957031 -2.050781 20.828125 -0.894531 20.828125 0 L 19.53125 0 C 19.53125 -1.757812 19.304688 -3.140625 18.859375 -4.140625 C 18.410156 -5.140625 17.8125 -5.890625 17.0625 -6.390625 C 16.320312 -6.898438 15.519531 -7.28125 14.65625 -7.53125 C 13.800781 -7.789062 12.945312 -8.039062 12.09375 -8.28125 C 11.25 -8.53125 10.488281 -8.894531 9.8125 -9.375 C 9.144531 -9.863281 8.65625 -10.585938 8.34375 -11.546875 C 7.238281 -14.867188 6.3125 -18.03125 5.5625 -21.03125 C 4.820312 -24.039062 3.9375 -26.753906 2.90625 -29.171875 C 2.28125 -30.648438 1.40625 -31.46875 0.28125 -31.625 C -0.84375 -31.78125 -1.816406 -31.410156 -2.640625 -30.515625 Z M -3.515625 -31.5 "/></g></g></g><g fill="#000000" fill-opacity="1"><g transform="translate(104.442497, 212.002136)"><g><path d="M 18.859375 -28.390625 C 21.828125 -28.390625 24.304688 -27.773438 26.296875 -26.546875 C 28.285156 -25.328125 29.703125 -23.660156 30.546875 -21.546875 C 31.390625 -19.441406 31.585938 -17.046875 31.140625 -14.359375 C 30.796875 -12.285156 30.640625 -10.519531 30.671875 -9.0625 C 30.703125 -7.613281 31.222656 -6.441406 32.234375 -5.546875 C 32.921875 -4.953125 33.671875 -4.734375 34.484375 -4.890625 C 35.296875 -5.046875 36.113281 -5.539062 36.9375 -6.375 L 37.71875 -5.546875 C 36.988281 -4.578125 36.054688 -3.675781 34.921875 -2.84375 C 33.785156 -2.019531 32.550781 -1.332031 31.21875 -0.78125 C 29.882812 -0.226562 28.535156 0.0859375 27.171875 0.171875 C 25.804688 0.265625 24.523438 0.0507812 23.328125 -0.46875 C 22.140625 -0.988281 21.148438 -1.882812 20.359375 -3.15625 C 20.222656 -2.1875 19.726562 -1.382812 18.875 -0.75 C 18.03125 -0.113281 16.523438 0.203125 14.359375 0.203125 C 9.765625 0.203125 6.378906 -0.503906 4.203125 -1.921875 C 2.023438 -3.335938 0.9375 -5.375 0.9375 -8.03125 C 0.9375 -13.519531 5.738281 -16.265625 15.34375 -16.265625 C 16.132812 -16.265625 16.898438 -16.25 17.640625 -16.21875 C 18.378906 -16.1875 19.078125 -16.132812 19.734375 -16.0625 C 20.148438 -19.207031 20.265625 -21.597656 20.078125 -23.234375 C 19.890625 -24.878906 19.457031 -25.957031 18.78125 -26.46875 C 18.101562 -26.988281 17.210938 -27.09375 16.109375 -26.78125 C 15.421875 -26.570312 14.921875 -26.101562 14.609375 -25.375 C 14.296875 -24.65625 14.035156 -23.8125 13.828125 -22.84375 C 13.617188 -21.882812 13.34375 -20.9375 13 -20 C 12.65625 -19.0625 12.128906 -18.28125 11.421875 -17.65625 C 10.710938 -17.039062 9.6875 -16.734375 8.34375 -16.734375 C 6.851562 -16.734375 5.640625 -17.078125 4.703125 -17.765625 C 3.773438 -18.460938 3.140625 -19.628906 2.796875 -21.265625 C 2.453125 -22.910156 2.4375 -25.164062 2.75 -28.03125 L 4.09375 -28.03125 C 4.09375 -27.0625 4.253906 -26.253906 4.578125 -25.609375 C 4.910156 -24.972656 5.507812 -24.65625 6.375 -24.65625 C 7.195312 -24.65625 8.03125 -24.84375 8.875 -25.21875 C 9.726562 -25.601562 10.640625 -26.035156 11.609375 -26.515625 C 12.578125 -27.003906 13.65625 -27.4375 14.84375 -27.8125 C 16.03125 -28.195312 17.367188 -28.390625 18.859375 -28.390625 Z M 19.015625 -9.0625 C 19.046875 -9.96875 19.113281 -10.882812 19.21875 -11.8125 C 19.320312 -12.75 19.441406 -13.695312 19.578125 -14.65625 L 19.578125 -14.875 C 18.234375 -15.039062 16.960938 -15.109375 15.765625 -15.078125 C 14.578125 -15.046875 13.625 -14.835938 12.90625 -14.453125 C 11.90625 -13.972656 11.332031 -13.054688 11.1875 -11.703125 C 11.050781 -10.359375 11.347656 -8.789062 12.078125 -7 C 13.003906 -4.644531 14.003906 -3.0625 15.078125 -2.25 C 16.148438 -1.4375 17.1875 -1.273438 18.1875 -1.765625 C 18.601562 -1.972656 18.863281 -2.457031 18.96875 -3.21875 C 19.070312 -3.976562 19.101562 -4.882812 19.0625 -5.9375 C 19.03125 -6.988281 19.015625 -8.03125 19.015625 -9.0625 Z M 19.015625 -9.0625 "/></g></g></g><g fill="#000000" fill-opacity="1"><g transform="translate(136.719286, 212.002136)"><g><path d="M 1.1875 -28.03125 L 2.484375 -28.03125 C 2.484375 -26.71875 2.71875 -25.757812 3.1875 -25.15625 C 3.65625 -24.550781 4.269531 -24.195312 5.03125 -24.09375 C 5.789062 -23.988281 6.648438 -24.023438 7.609375 -24.203125 C 8.472656 -24.367188 9.234375 -24.664062 9.890625 -25.09375 C 10.546875 -25.53125 11.191406 -26.007812 11.828125 -26.53125 C 12.472656 -27.050781 13.179688 -27.488281 13.953125 -27.84375 C 14.734375 -28.207031 15.660156 -28.390625 16.734375 -28.390625 C 18.253906 -28.390625 19.4375 -28.195312 20.28125 -27.8125 C 21.125 -27.4375 21.78125 -27.003906 22.25 -26.515625 C 22.71875 -26.035156 23.160156 -25.601562 23.578125 -25.21875 C 23.992188 -24.84375 24.507812 -24.65625 25.125 -24.65625 C 25.988281 -24.65625 26.582031 -24.972656 26.90625 -25.609375 C 27.238281 -26.253906 27.40625 -27.0625 27.40625 -28.03125 L 28.75 -28.03125 C 28.925781 -25.164062 28.789062 -22.910156 28.34375 -21.265625 C 27.894531 -19.628906 27.164062 -18.460938 26.15625 -17.765625 C 25.15625 -17.078125 23.914062 -16.734375 22.4375 -16.734375 C 21.09375 -16.734375 20.039062 -17.023438 19.28125 -17.609375 C 18.519531 -18.203125 17.9375 -18.929688 17.53125 -19.796875 C 17.132812 -20.660156 16.816406 -21.53125 16.578125 -22.40625 C 16.335938 -23.289062 16.050781 -24.050781 15.71875 -24.6875 C 15.394531 -25.320312 14.90625 -25.691406 14.25 -25.796875 C 13.59375 -25.898438 13.125 -25.660156 12.84375 -25.078125 C 12.570312 -24.492188 12.4375 -23.734375 12.4375 -22.796875 L 12.53125 0 L 1.1875 0 Z M 1.1875 -28.03125 "/></g></g></g><g fill="#000000" fill-opacity="1"><g transform="translate(166.457454, 212.002136)"><g><path d="M 16.265625 0.359375 C 13.191406 0.359375 10.5 -0.25 8.1875 -1.46875 C 5.875 -2.695312 4.085938 -4.390625 2.828125 -6.546875 C 1.566406 -8.710938 0.9375 -11.210938 0.9375 -14.046875 C 0.9375 -16.148438 1.375 -18.082031 2.25 -19.84375 C 3.132812 -21.601562 4.273438 -23.125 5.671875 -24.40625 C 7.066406 -25.6875 8.566406 -26.671875 10.171875 -27.359375 C 11.785156 -28.046875 13.332031 -28.390625 14.8125 -28.390625 C 15.539062 -28.390625 16.429688 -28.207031 17.484375 -27.84375 C 18.535156 -27.488281 19.597656 -26.859375 20.671875 -25.953125 L 20.671875 -35.125 L 21.96875 -35.125 C 21.96875 -33.914062 22.207031 -33.023438 22.6875 -32.453125 C 23.175781 -31.890625 23.800781 -31.492188 24.5625 -31.265625 C 25.320312 -31.046875 26.132812 -30.882812 27 -30.78125 C 27.863281 -30.675781 28.671875 -30.523438 29.421875 -30.328125 C 30.179688 -30.140625 30.800781 -29.785156 31.28125 -29.265625 C 31.769531 -28.753906 32.015625 -27.925781 32.015625 -26.78125 L 32.015625 0 L 30.71875 0 C 30.71875 -1.238281 30.535156 -2.132812 30.171875 -2.6875 C 29.816406 -3.238281 29.351562 -3.578125 28.78125 -3.703125 C 28.207031 -3.828125 27.628906 -3.890625 27.046875 -3.890625 C 26.285156 -3.890625 25.488281 -3.671875 24.65625 -3.234375 C 23.832031 -2.804688 22.96875 -2.316406 22.0625 -1.765625 C 21.164062 -1.210938 20.234375 -0.71875 19.265625 -0.28125 C 18.304688 0.144531 17.304688 0.359375 16.265625 0.359375 Z M 19.375 -1.765625 C 20.070312 -2.140625 20.460938 -2.878906 20.546875 -3.984375 C 20.628906 -5.085938 20.671875 -6.488281 20.671875 -8.1875 L 20.671875 -22.953125 C 19.253906 -24.640625 17.785156 -25.691406 16.265625 -26.109375 C 14.742188 -26.523438 13.429688 -26.390625 12.328125 -25.703125 C 11.359375 -25.078125 10.726562 -24.082031 10.4375 -22.71875 C 10.144531 -21.351562 10.101562 -19.765625 10.3125 -17.953125 C 10.519531 -16.140625 10.847656 -14.234375 11.296875 -12.234375 C 11.671875 -10.710938 12.175781 -9.25 12.8125 -7.84375 C 13.457031 -6.445312 14.175781 -5.238281 14.96875 -4.21875 C 15.769531 -3.195312 16.554688 -2.453125 17.328125 -1.984375 C 18.109375 -1.523438 18.789062 -1.453125 19.375 -1.765625 Z M 19.375 -1.765625 "/></g></g></g><g fill="#000000" fill-opacity="1"><g transform="translate(199.666799, 212.002136)"><g><path d="M 1.1875 -28.03125 L 2.484375 -28.03125 C 2.484375 -26.71875 2.71875 -25.757812 3.1875 -25.15625 C 3.65625 -24.550781 4.269531 -24.195312 5.03125 -24.09375 C 5.789062 -23.988281 6.648438 -24.023438 7.609375 -24.203125 C 8.472656 -24.367188 9.234375 -24.664062 9.890625 -25.09375 C 10.546875 -25.53125 11.191406 -26.007812 11.828125 -26.53125 C 12.472656 -27.050781 13.179688 -27.488281 13.953125 -27.84375 C 14.734375 -28.207031 15.660156 -28.390625 16.734375 -28.390625 C 18.253906 -28.390625 19.4375 -28.195312 20.28125 -27.8125 C 21.125 -27.4375 21.78125 -27.003906 22.25 -26.515625 C 22.71875 -26.035156 23.160156 -25.601562 23.578125 -25.21875 C 23.992188 -24.84375 24.507812 -24.65625 25.125 -24.65625 C 25.988281 -24.65625 26.582031 -24.972656 26.90625 -25.609375 C 27.238281 -26.253906 27.40625 -27.0625 27.40625 -28.03125 L 28.75 -28.03125 C 28.925781 -25.164062 28.789062 -22.910156 28.34375 -21.265625 C 27.894531 -19.628906 27.164062 -18.460938 26.15625 -17.765625 C 25.15625 -17.078125 23.914062 -16.734375 22.4375 -16.734375 C 21.09375 -16.734375 20.039062 -17.023438 19.28125 -17.609375 C 18.519531 -18.203125 17.9375 -18.929688 17.53125 -19.796875 C 17.132812 -20.660156 16.816406 -21.53125 16.578125 -22.40625 C 16.335938 -23.289062 16.050781 -24.050781 15.71875 -24.6875 C 15.394531 -25.320312 14.90625 -25.691406 14.25 -25.796875 C 13.59375 -25.898438 13.125 -25.660156 12.84375 -25.078125 C 12.570312 -24.492188 12.4375 -23.734375 12.4375 -22.796875 L 12.53125 0 L 1.1875 0 Z M 1.1875 -28.03125 "/></g></g></g><g fill="#000000" fill-opacity="1"><g transform="translate(229.404967, 212.002136)"><g><path d="M 16.421875 -28.390625 C 19.492188 -28.390625 22.1875 -27.773438 24.5 -26.546875 C 26.820312 -25.328125 28.628906 -23.644531 29.921875 -21.5 C 31.210938 -19.363281 31.859375 -16.878906 31.859375 -14.046875 C 31.859375 -11.210938 31.210938 -8.710938 29.921875 -6.546875 C 28.628906 -4.390625 26.820312 -2.695312 24.5 -1.46875 C 22.1875 -0.25 19.492188 0.359375 16.421875 0.359375 C 13.316406 0.359375 10.601562 -0.25 8.28125 -1.46875 C 5.96875 -2.695312 4.164062 -4.390625 2.875 -6.546875 C 1.582031 -8.710938 0.9375 -11.210938 0.9375 -14.046875 C 0.9375 -16.878906 1.582031 -19.363281 2.875 -21.5 C 4.164062 -23.644531 5.96875 -25.328125 8.28125 -26.546875 C 10.601562 -27.773438 13.316406 -28.390625 16.421875 -28.390625 Z M 23.78125 -2.390625 C 24.78125 -3.003906 25.242188 -3.984375 25.171875 -5.328125 C 25.109375 -6.679688 24.632812 -8.304688 23.75 -10.203125 C 22.875 -12.109375 21.710938 -14.195312 20.265625 -16.46875 C 18.804688 -18.789062 17.40625 -20.753906 16.0625 -22.359375 C 14.71875 -23.960938 13.457031 -25.070312 12.28125 -25.6875 C 11.101562 -26.3125 10.015625 -26.316406 9.015625 -25.703125 C 8.046875 -25.078125 7.585938 -24.085938 7.640625 -22.734375 C 7.691406 -21.390625 8.15625 -19.769531 9.03125 -17.875 C 9.914062 -15.976562 11.082031 -13.867188 12.53125 -11.546875 C 14.019531 -9.273438 15.425781 -7.332031 16.75 -5.71875 C 18.082031 -4.113281 19.34375 -3 20.53125 -2.375 C 21.726562 -1.757812 22.8125 -1.765625 23.78125 -2.390625 Z M 23.78125 -2.390625 "/></g></g></g><g fill="#000000" fill-opacity="1"><g transform="translate(262.199841, 212.002136)"><g><path d="M 16.9375 -28.390625 C 20.007812 -28.390625 22.691406 -27.773438 24.984375 -26.546875 C 27.285156 -25.328125 29.078125 -23.644531 30.359375 -21.5 C 31.640625 -19.363281 32.28125 -16.878906 32.28125 -14.046875 C 32.28125 -11.929688 31.835938 -9.992188 30.953125 -8.234375 C 30.078125 -6.472656 28.9375 -4.941406 27.53125 -3.640625 C 26.132812 -2.347656 24.632812 -1.359375 23.03125 -0.671875 C 21.425781 0.015625 19.878906 0.359375 18.390625 0.359375 C 17.078125 0.359375 15.910156 0.117188 14.890625 -0.359375 C 13.878906 -0.847656 12.921875 -1.398438 12.015625 -2.015625 C 11.117188 -2.640625 10.175781 -3.148438 9.1875 -3.546875 C 8.207031 -3.941406 7.097656 -4.054688 5.859375 -3.890625 C 5.234375 -3.816406 4.671875 -3.519531 4.171875 -3 C 3.671875 -2.488281 3.265625 -1.9375 2.953125 -1.34375 C 2.640625 -0.757812 2.484375 -0.3125 2.484375 0 L 1.1875 0 L 1.1875 -26.78125 C 1.1875 -27.925781 1.425781 -28.753906 1.90625 -29.265625 C 2.394531 -29.785156 3.019531 -30.140625 3.78125 -30.328125 C 4.539062 -30.523438 5.34375 -30.675781 6.1875 -30.78125 C 7.039062 -30.882812 7.84375 -31.046875 8.59375 -31.265625 C 9.351562 -31.492188 9.972656 -31.890625 10.453125 -32.453125 C 10.941406 -33.023438 11.1875 -33.914062 11.1875 -35.125 L 12.484375 -35.125 L 12.484375 -27.046875 C 13.171875 -27.421875 13.882812 -27.738281 14.625 -28 C 15.375 -28.257812 16.144531 -28.390625 16.9375 -28.390625 Z M 12.484375 -21.96875 L 12.484375 -5.125 C 13.898438 -3.4375 15.359375 -2.375 16.859375 -1.9375 C 18.367188 -1.507812 19.691406 -1.660156 20.828125 -2.390625 C 21.828125 -3.003906 22.472656 -3.992188 22.765625 -5.359375 C 23.066406 -6.722656 23.113281 -8.3125 22.90625 -10.125 C 22.695312 -11.9375 22.347656 -13.828125 21.859375 -15.796875 C 21.515625 -17.316406 21.015625 -18.773438 20.359375 -20.171875 C 19.703125 -21.578125 18.984375 -22.789062 18.203125 -23.8125 C 17.429688 -24.832031 16.65625 -25.582031 15.875 -26.0625 C 15.101562 -26.539062 14.421875 -26.628906 13.828125 -26.328125 C 13.273438 -26.046875 12.910156 -25.523438 12.734375 -24.765625 C 12.566406 -24.003906 12.484375 -23.070312 12.484375 -21.96875 Z M 12.484375 -21.96875 "/></g></g></g><g fill="#000000" fill-opacity="1"><g transform="translate(295.357378, 212.002136)"><g><path d="M 15.59375 -1.546875 C 17.082031 -1.648438 18.222656 -2.253906 19.015625 -3.359375 C 19.804688 -4.472656 20.304688 -5.910156 20.515625 -7.671875 C 20.722656 -9.429688 20.679688 -11.328125 20.390625 -13.359375 C 20.097656 -15.398438 19.585938 -17.40625 18.859375 -19.375 C 18.128906 -21.34375 17.226562 -23.09375 16.15625 -24.625 C 15.09375 -26.164062 13.882812 -27.300781 12.53125 -28.03125 L 27.5625 -28.03125 C 28.25 -26.894531 28.632812 -25.46875 28.71875 -23.75 C 28.8125 -22.039062 28.71875 -20.21875 28.4375 -18.28125 C 28.164062 -16.351562 27.820312 -14.488281 27.40625 -12.6875 C 26.988281 -10.894531 26.59375 -9.378906 26.21875 -8.140625 C 25.457031 -5.515625 24.523438 -2.878906 23.421875 -0.234375 C 22.316406 2.410156 21.054688 4.8125 19.640625 6.96875 C 18.222656 9.125 16.664062 10.859375 14.96875 12.171875 C 13.28125 13.484375 11.46875 14.140625 9.53125 14.140625 C 8.25 14.140625 7.1875 13.929688 6.34375 13.515625 C 5.5 13.109375 4.78125 12.632812 4.1875 12.09375 C 3.601562 11.5625 3.050781 11.085938 2.53125 10.671875 C 2.019531 10.253906 1.4375 10.046875 0.78125 10.046875 C -0.394531 10.046875 -1.144531 10.375 -1.46875 11.03125 C -1.800781 11.6875 -1.96875 12.585938 -1.96875 13.734375 L -3.109375 13.734375 C -3.316406 12.316406 -3.332031 10.863281 -3.15625 9.375 C -2.988281 7.894531 -2.609375 6.515625 -2.015625 5.234375 C -1.429688 3.953125 -0.585938 2.914062 0.515625 2.125 C 1.617188 1.332031 3.019531 0.9375 4.71875 0.9375 C 6.03125 0.9375 7.125 1.140625 8 1.546875 C 8.882812 1.960938 9.632812 2.484375 10.25 3.109375 C 10.875 3.734375 11.425781 4.351562 11.90625 4.96875 C 12.394531 5.59375 12.898438 6.113281 13.421875 6.53125 C 13.941406 6.945312 14.5625 7.15625 15.28125 7.15625 C 17.1875 7.15625 18.640625 6.195312 19.640625 4.28125 C 20.640625 2.363281 21.207031 -0.113281 21.34375 -3.15625 C 20.269531 -2.125 19.066406 -1.304688 17.734375 -0.703125 C 16.410156 -0.0976562 14.988281 0.203125 13.46875 0.203125 C 10.46875 0.203125 7.972656 -0.40625 5.984375 -1.625 C 3.992188 -2.851562 2.59375 -4.53125 1.78125 -6.65625 C 0.96875 -8.78125 0.769531 -11.191406 1.1875 -13.890625 C 1.5 -15.960938 1.644531 -17.734375 1.625 -19.203125 C 1.613281 -20.671875 1.109375 -21.832031 0.109375 -22.6875 C -0.585938 -23.28125 -1.347656 -23.488281 -2.171875 -23.3125 C -3.003906 -23.144531 -3.816406 -22.660156 -4.609375 -21.859375 L -5.4375 -22.6875 C -4.539062 -23.832031 -3.375 -24.890625 -1.9375 -25.859375 C -0.507812 -26.828125 1.019531 -27.539062 2.65625 -28 C 4.300781 -28.46875 5.898438 -28.554688 7.453125 -28.265625 C 9.015625 -27.972656 10.347656 -27.132812 11.453125 -25.75 C 12.273438 -24.71875 12.804688 -23.546875 13.046875 -22.234375 C 13.296875 -20.921875 13.367188 -19.53125 13.265625 -18.0625 C 13.160156 -16.59375 12.988281 -15.097656 12.75 -13.578125 C 12.332031 -10.910156 12.128906 -8.765625 12.140625 -7.140625 C 12.160156 -5.523438 12.328125 -4.3125 12.640625 -3.5 C 12.953125 -2.6875 13.363281 -2.148438 13.875 -1.890625 C 14.394531 -1.628906 14.96875 -1.515625 15.59375 -1.546875 Z M 15.59375 -1.546875 "/></g></g></g></svg>